<svg xmlns="http://www.w3.org/2000/svg" xmlns:xlink="http://www.w3.org/1999/xlink" width="1024" zoomAndPan="magnify" viewBox="0 0 768 767.999994" height="1024" preserveAspectRatio="xMidYMid meet" version="1.0"><defs><clipPath id="e8c5844386"><path d="M 66.253906 67.445312 L 700 67.445312 L 700 700.445312 L 66.253906 700.445312 Z M 66.253906 67.445312 " clip-rule="nonzero"/></clipPath></defs><g clip-path="url(#e8c5844386)"><path fill="#ffbd59" d="M 342.539062 366.054688 L 364.691406 366.054688 L 364.691406 406.644531 L 342.539062 406.644531 Z M 501.3125 366.054688 L 479.160156 366.054688 L 479.160156 406.644531 L 501.3125 406.644531 Z M 382.882812 569.871094 L 225.226562 478.914062 L 225.226562 297.003906 L 382.882812 206.046875 L 540.417969 297.003906 L 540.417969 478.914062 Z M 464.679688 411.472656 C 464.679688 416.667969 469.011719 421 474.332031 421 L 506.015625 421 C 511.335938 421 515.667969 416.667969 515.667969 411.472656 L 515.667969 361.226562 C 515.667969 355.90625 511.335938 351.574219 506.015625 351.574219 L 474.332031 351.574219 C 469.136719 351.574219 464.679688 355.90625 464.679688 361.226562 Z M 322.367188 316.679688 L 453.046875 316.679688 C 462.453125 316.679688 462.453125 302.324219 453.046875 302.324219 C 453.046875 302.324219 322.367188 302.324219 322.367188 302.324219 C 312.964844 302.570312 313.085938 316.554688 322.367188 316.679688 Z M 410.851562 406.644531 L 410.851562 366.179688 C 410.972656 366.179688 440.179688 366.425781 440.179688 366.425781 C 449.582031 366.425781 449.582031 352.195312 440.300781 352.070312 L 406.269531 351.699219 C 401.074219 351.699219 396.371094 356.03125 396.496094 361.351562 L 396.496094 411.472656 C 396.496094 416.667969 400.828125 421 406.148438 421 L 437.828125 421 C 443.148438 421 447.480469 416.667969 447.480469 411.472656 L 447.480469 388.824219 C 447.480469 383.503906 443.148438 379.171875 437.828125 379.171875 L 421.988281 379.171875 C 412.582031 379.171875 412.582031 393.527344 421.988281 393.527344 L 433 393.527344 L 433 406.644531 Z M 369.515625 351.699219 L 337.835938 351.699219 C 332.515625 351.699219 328.183594 356.03125 328.183594 361.351562 L 328.183594 411.59375 C 328.183594 416.792969 332.515625 421.125 337.835938 421.125 L 369.515625 421.125 C 374.839844 421.125 379.171875 416.792969 379.171875 411.59375 L 379.171875 361.351562 C 379.046875 356.03125 374.714844 351.699219 369.515625 351.699219 Z M 303.558594 406.644531 L 274.230469 406.644531 L 274.230469 358.878906 C 274.105469 349.472656 260 349.472656 259.875 358.878906 L 259.875 411.472656 C 259.875 416.667969 264.207031 421 269.527344 421 L 303.683594 421 C 313.085938 420.875 313.085938 406.890625 303.558594 406.644531 Z M 322.367188 470.375 L 453.046875 470.375 C 462.453125 470.375 462.453125 456.019531 453.046875 456.019531 C 453.046875 456.019531 322.367188 456.019531 322.367188 456.019531 C 312.964844 456.144531 313.085938 470.253906 322.367188 470.375 Z M 692.257812 657.238281 L 617.140625 657.238281 L 617.140625 693.375 C 617.140625 697.332031 613.925781 700.550781 609.964844 700.550781 C 606.003906 700.550781 602.785156 697.332031 602.785156 693.375 L 602.785156 657.238281 L 163.101562 657.238281 L 163.101562 693.375 C 163.101562 697.332031 159.886719 700.550781 155.925781 700.550781 C 151.964844 700.550781 148.746094 697.332031 148.746094 693.375 L 148.746094 657.238281 L 73.507812 657.238281 C 69.546875 657.238281 66.328125 654.019531 66.328125 650.0625 C 66.328125 646.101562 69.546875 642.882812 73.507812 642.882812 L 148.625 642.882812 L 148.625 133.15625 L 73.507812 133.15625 C 69.546875 133.15625 66.328125 129.9375 66.328125 125.980469 C 66.328125 122.019531 69.546875 118.800781 73.507812 118.800781 L 148.625 118.800781 L 148.625 74.625 C 148.625 70.664062 151.839844 67.445312 155.800781 67.445312 C 159.761719 67.445312 162.980469 70.664062 162.980469 74.625 L 162.980469 118.679688 L 602.539062 118.679688 L 602.539062 74.625 C 602.539062 70.664062 605.757812 67.445312 609.714844 67.445312 C 613.675781 67.445312 616.894531 70.664062 616.894531 74.625 L 616.894531 118.679688 L 692.257812 118.679688 C 696.21875 118.679688 699.433594 121.894531 699.433594 125.855469 C 699.433594 129.816406 696.21875 133.03125 692.257812 133.03125 L 617.140625 133.03125 L 617.140625 642.757812 L 692.257812 642.757812 C 701.664062 643.007812 701.664062 657.113281 692.257812 657.238281 Z M 602.664062 514.925781 L 382.882812 641.769531 L 163.101562 514.925781 L 163.101562 642.882812 L 602.785156 642.882812 L 602.785156 514.925781 Z M 214.457031 489.308594 L 379.292969 584.472656 C 381.519531 585.710938 384.242188 585.710938 386.472656 584.472656 L 551.183594 489.308594 C 553.410156 488.070312 554.769531 485.597656 554.769531 483.121094 L 554.769531 292.917969 C 554.769531 290.320312 553.410156 287.96875 551.183594 286.730469 L 386.472656 191.691406 C 384.242188 190.453125 381.519531 190.453125 379.292969 191.691406 L 214.457031 286.730469 C 212.230469 287.96875 210.871094 290.441406 210.871094 292.917969 L 210.871094 483.121094 C 210.871094 485.722656 212.230469 488.070312 214.457031 489.308594 Z M 602.664062 133.15625 L 162.980469 133.15625 L 162.980469 260.992188 L 382.882812 134.148438 L 602.664062 260.992188 Z M 602.664062 133.15625 " fill-opacity="1" fill-rule="nonzero"/></g></svg>