<svg xmlns="http://www.w3.org/2000/svg" xmlns:xlink="http://www.w3.org/1999/xlink" width="1024" zoomAndPan="magnify" viewBox="0 0 768 767.999994" height="1024" preserveAspectRatio="xMidYMid meet" version="1.0"><defs><clipPath id="a9261b67fe"><path d="M 32.148438 103.589844 L 735.648438 103.589844 L 735.648438 597.839844 L 32.148438 597.839844 Z M 32.148438 103.589844 " clip-rule="nonzero"/></clipPath></defs><path fill="#ffbd59" d="M 476 270.019531 L 363.402344 193.121094 C 357.90625 189.277344 352.964844 187.628906 348.019531 187.628906 C 337.035156 187.628906 329.347656 196.964844 329.347656 211.246094 L 329.347656 372.734375 C 329.347656 387.015625 336.488281 396.351562 348.019531 396.351562 C 352.964844 396.351562 358.457031 394.703125 363.402344 390.859375 L 476 313.960938 C 484.242188 308.46875 488.632812 300.230469 488.632812 291.992188 C 488.632812 283.75 484.242188 275.511719 476 270.019531 Z M 476 270.019531 " fill-opacity="1" fill-rule="nonzero"/><g clip-path="url(#a9261b67fe)"><path fill="#ffbd59" d="M 97.554688 597.933594 L 670.441406 597.933594 C 706.144531 597.933594 735.257812 568.824219 735.257812 533.121094 L 735.257812 168.40625 C 735.257812 132.703125 706.144531 103.589844 670.441406 103.589844 L 97.554688 103.589844 C 61.851562 103.589844 32.738281 132.703125 32.738281 168.40625 L 32.738281 532.570312 C 32.738281 568.824219 61.851562 597.933594 97.554688 597.933594 Z M 680.878906 532.023438 L 218.394531 532.023438 C 214.546875 553.992188 198.070312 564.429688 178.296875 564.429688 C 158.523438 564.429688 142.042969 553.992188 138.199219 532.023438 L 87.667969 532.023438 C 81.625 532.023438 76.679688 527.078125 76.679688 521.035156 C 76.679688 514.996094 81.625 510.050781 87.667969 510.050781 L 139.296875 510.050781 C 144.792969 493.574219 160.171875 482.039062 178.296875 482.039062 C 196.421875 482.039062 211.800781 493.574219 217.292969 510.050781 L 680.878906 510.050781 C 686.921875 510.050781 691.863281 514.996094 691.863281 521.035156 C 691.863281 527.078125 686.921875 532.023438 680.878906 532.023438 Z M 54.710938 170.601562 C 54.710938 146.984375 74.484375 125.5625 98.101562 125.5625 L 670.992188 125.5625 C 694.609375 125.5625 713.835938 146.984375 713.835938 170.601562 L 713.835938 455.125 L 54.710938 455.125 Z M 54.710938 170.601562 " fill-opacity="1" fill-rule="nonzero"/></g></svg>