<svg xmlns="http://www.w3.org/2000/svg" xmlns:xlink="http://www.w3.org/1999/xlink" width="1024" zoomAndPan="magnify" viewBox="0 0 768 767.999994" height="1024" preserveAspectRatio="xMidYMid meet" version="1.0"><defs><clipPath id="1450fa0b3e"><path d="M 54.601562 58.71875 L 713.101562 58.71875 L 713.101562 708.96875 L 54.601562 708.96875 Z M 54.601562 58.71875 " clip-rule="nonzero"/></clipPath></defs><path fill="#ffbd59" d="M 502.171875 307.773438 C 498.371094 307.773438 494.554688 306.769531 491.089844 304.769531 C 484.144531 300.757812 480.007812 293.589844 480.007812 285.570312 L 480.007812 221.242188 C 480.007812 213.21875 484.144531 206.050781 491.089844 202.039062 C 498.035156 198.027344 506.324219 198.027344 513.253906 202.039062 L 568.972656 234.210938 C 575.917969 238.21875 580.054688 245.390625 580.054688 253.410156 C 580.054688 261.433594 575.917969 268.601562 568.972656 272.613281 L 513.253906 304.785156 C 509.789062 306.78125 505.988281 307.773438 502.171875 307.773438 Z M 502.171875 220.5 C 502.074219 220.5 501.976562 220.542969 501.824219 220.640625 C 501.5 220.820312 501.472656 220.878906 501.472656 221.253906 L 501.472656 285.582031 C 501.472656 285.945312 501.515625 286.015625 501.824219 286.199219 C 502.144531 286.378906 502.214844 286.378906 502.523438 286.199219 L 558.242188 254.027344 C 558.5625 253.84375 558.589844 253.789062 558.589844 253.410156 C 558.589844 253.035156 558.546875 252.976562 558.242188 252.796875 L 502.523438 220.625 C 502.367188 220.542969 502.269531 220.5 502.171875 220.5 Z M 502.171875 220.5 " fill-opacity="1" fill-rule="nonzero"/><path fill="#ffbd59" d="M 587.367188 364.585938 L 472.699219 364.585938 C 436.851562 364.585938 407.699219 335.417969 407.699219 299.585938 L 407.699219 207.238281 C 407.699219 171.390625 436.867188 142.238281 472.699219 142.238281 L 587.367188 142.238281 C 623.210938 142.238281 652.363281 171.40625 652.363281 207.238281 L 652.363281 299.585938 C 652.378906 335.417969 623.210938 364.585938 587.367188 364.585938 Z M 472.699219 163.703125 C 448.6875 163.703125 429.164062 183.242188 429.164062 207.238281 L 429.164062 299.585938 C 429.164062 323.59375 448.703125 343.117188 472.699219 343.117188 L 587.367188 343.117188 C 611.375 343.117188 630.914062 323.582031 630.914062 299.585938 L 630.914062 207.238281 C 630.914062 183.226562 611.375 163.703125 587.367188 163.703125 Z M 472.699219 163.703125 " fill-opacity="1" fill-rule="nonzero"/><path fill="#ffbd59" d="M 226.371094 573.039062 C 220.445312 573.039062 215.636719 568.230469 215.636719 562.304688 L 215.636719 481.445312 C 215.636719 459.894531 233.164062 442.371094 254.710938 442.371094 L 267.011719 442.371094 C 272.9375 442.371094 277.742188 447.179688 277.742188 453.105469 C 277.742188 459.027344 272.9375 463.835938 267.011719 463.835938 L 254.710938 463.835938 C 245 463.835938 237.105469 471.734375 237.105469 481.445312 L 237.105469 562.304688 C 237.105469 568.230469 232.3125 573.039062 226.371094 573.039062 Z M 226.371094 573.039062 " fill-opacity="1" fill-rule="nonzero"/><path fill="#ffbd59" d="M 243.953125 518.4375 L 208.804688 518.4375 C 202.878906 518.4375 198.070312 513.628906 198.070312 507.703125 C 198.070312 501.78125 202.878906 496.972656 208.804688 496.972656 L 243.953125 496.972656 C 249.878906 496.972656 254.683594 501.78125 254.683594 507.703125 C 254.683594 513.628906 249.878906 518.4375 243.953125 518.4375 Z M 243.953125 518.4375 " fill-opacity="1" fill-rule="nonzero"/><path fill="#ffbd59" d="M 295.242188 618.878906 L 180.574219 618.878906 C 144.726562 618.878906 115.574219 589.710938 115.574219 553.878906 L 115.574219 461.53125 C 115.574219 425.683594 144.742188 396.53125 180.574219 396.53125 L 295.242188 396.53125 C 331.085938 396.53125 360.238281 425.699219 360.238281 461.53125 L 360.238281 553.878906 C 360.238281 589.710938 331.085938 618.878906 295.242188 618.878906 Z M 180.574219 417.996094 C 156.566406 417.996094 137.042969 437.535156 137.042969 461.542969 L 137.042969 553.894531 C 137.042969 577.902344 156.578125 597.425781 180.574219 597.425781 L 295.242188 597.425781 C 319.25 597.425781 338.773438 577.886719 338.773438 553.894531 L 338.773438 461.542969 C 338.773438 437.535156 319.238281 417.996094 295.242188 417.996094 Z M 180.574219 417.996094 " fill-opacity="1" fill-rule="nonzero"/><path fill="#ffbd59" d="M 479.5625 524.28125 C 476.347656 524.28125 473.175781 522.855469 471.0625 520.113281 C 467.429688 515.433594 468.296875 508.683594 472.976562 505.0625 L 511.730469 475.074219 C 515.839844 471.902344 521.625 472.109375 525.484375 475.589844 L 542.296875 490.726562 L 573.949219 466.226562 C 578.632812 462.59375 585.382812 463.460938 589 468.140625 C 592.632812 472.824219 591.769531 479.574219 587.085938 483.191406 L 548.347656 513.183594 C 544.238281 516.355469 538.453125 516.144531 534.59375 512.667969 L 517.78125 497.53125 L 486.128906 522.03125 C 484.160156 523.554688 481.851562 524.28125 479.5625 524.28125 Z M 479.5625 524.28125 " fill-opacity="1" fill-rule="nonzero"/><path fill="#ffbd59" d="M 455.046875 625.808594 C 452.921875 625.808594 450.828125 625.179688 449.011719 623.949219 C 445.921875 621.855469 444.148438 618.292969 444.328125 614.558594 L 447.066406 557.738281 C 432.9375 539.371094 425.492188 517.472656 425.492188 494.121094 C 425.492188 436.472656 472.390625 389.585938 530.023438 389.585938 C 587.660156 389.585938 634.558594 436.472656 634.558594 494.121094 C 634.558594 551.769531 587.671875 598.65625 530.023438 598.65625 C 526.183594 598.65625 522.367188 598.460938 518.636719 598.070312 L 459.476562 624.859375 C 458.066406 625.503906 456.558594 625.808594 455.046875 625.808594 Z M 530.039062 411.050781 C 484.226562 411.050781 446.96875 448.324219 446.96875 494.121094 C 446.96875 513.8125 453.636719 532.203125 466.242188 547.324219 C 467.960938 549.394531 468.855469 552.035156 468.714844 554.71875 L 466.621094 598.070312 L 512.527344 577.289062 C 514.371094 576.449219 516.414062 576.15625 518.410156 576.433594 C 522.183594 576.953125 526.097656 577.21875 530.039062 577.21875 C 575.851562 577.21875 613.109375 539.945312 613.109375 494.148438 C 613.109375 448.324219 575.835938 411.050781 530.039062 411.050781 Z M 530.039062 411.050781 " fill-opacity="1" fill-rule="nonzero"/><path fill="#ffbd59" d="M 295.242188 364.585938 L 180.574219 364.585938 C 144.726562 364.585938 115.574219 335.417969 115.574219 299.585938 L 115.574219 207.238281 C 115.574219 171.390625 144.742188 142.238281 180.574219 142.238281 L 295.242188 142.238281 C 331.085938 142.238281 360.238281 171.40625 360.238281 207.238281 L 360.238281 299.585938 C 360.238281 335.417969 331.085938 364.585938 295.242188 364.585938 Z M 180.574219 163.703125 C 156.566406 163.703125 137.042969 183.242188 137.042969 207.238281 L 137.042969 299.585938 C 137.042969 323.59375 156.578125 343.117188 180.574219 343.117188 L 295.242188 343.117188 C 319.25 343.117188 338.773438 323.582031 338.773438 299.585938 L 338.773438 207.238281 C 338.773438 183.226562 319.238281 163.703125 295.242188 163.703125 Z M 180.574219 163.703125 " fill-opacity="1" fill-rule="nonzero"/><path fill="#ffbd59" d="M 237.902344 303.316406 C 210.382812 303.316406 187.996094 280.929688 187.996094 253.410156 C 187.996094 225.894531 210.382812 203.507812 237.902344 203.507812 C 265.417969 203.507812 287.804688 225.894531 287.804688 253.410156 C 287.804688 280.929688 265.417969 303.316406 237.902344 303.316406 Z M 237.902344 224.972656 C 222.21875 224.972656 209.460938 237.730469 209.460938 253.410156 C 209.460938 269.089844 222.21875 281.851562 237.902344 281.851562 C 253.582031 281.851562 266.339844 269.089844 266.339844 253.410156 C 266.339844 237.730469 253.582031 224.972656 237.902344 224.972656 Z M 237.902344 224.972656 " fill-opacity="1" fill-rule="nonzero"/><path fill="#ffbd59" d="M 294.597656 203.898438 L 286.996094 203.898438 C 281.070312 203.898438 276.261719 199.089844 276.261719 193.164062 C 276.261719 187.238281 281.070312 182.429688 286.996094 182.429688 L 294.597656 182.429688 C 300.523438 182.429688 305.332031 187.238281 305.332031 193.164062 C 305.332031 199.089844 300.523438 203.898438 294.597656 203.898438 Z M 294.597656 203.898438 " fill-opacity="1" fill-rule="nonzero"/><g clip-path="url(#1450fa0b3e)"><path fill="#ffbd59" d="M 702.605469 709.117188 L 65.335938 709.117188 C 59.410156 709.117188 54.601562 704.308594 54.601562 698.382812 L 54.601562 69.664062 C 54.601562 63.738281 59.410156 58.933594 65.335938 58.933594 L 702.605469 58.933594 C 708.53125 58.933594 713.339844 63.738281 713.339844 69.664062 L 713.339844 698.371094 C 713.339844 704.308594 708.53125 709.117188 702.605469 709.117188 Z M 76.066406 687.648438 L 691.871094 687.648438 L 691.871094 80.398438 L 76.066406 80.398438 Z M 76.066406 687.648438 " fill-opacity="1" fill-rule="nonzero"/></g></svg>