<svg xmlns="http://www.w3.org/2000/svg" xmlns:xlink="http://www.w3.org/1999/xlink" width="1024" zoomAndPan="magnify" viewBox="0 0 768 767.999994" height="1024" preserveAspectRatio="xMidYMid meet" version="1.0"><defs><clipPath id="59d7aae016"><path d="M 42.492188 39.042969 L 725.742188 39.042969 L 725.742188 729 L 42.492188 729 Z M 42.492188 39.042969 " clip-rule="nonzero"/></clipPath></defs><g clip-path="url(#59d7aae016)"><path fill="#ffbd59" d="M 110.019531 728.667969 L 658.683594 728.667969 C 659.785156 728.667969 660.886719 728.636719 661.988281 728.582031 C 663.089844 728.527344 664.1875 728.445312 665.285156 728.335938 C 666.382812 728.226562 667.476562 728.089844 668.566406 727.929688 C 669.65625 727.765625 670.742188 727.578125 671.824219 727.359375 C 672.90625 727.144531 673.980469 726.902344 675.050781 726.632812 C 676.117188 726.367188 677.179688 726.070312 678.234375 725.75 C 679.289062 725.429688 680.335938 725.082031 681.375 724.710938 C 682.414062 724.339844 683.441406 723.941406 684.457031 723.519531 C 685.476562 723.097656 686.484375 722.648438 687.480469 722.175781 C 688.476562 721.707031 689.460938 721.210938 690.433594 720.691406 C 691.40625 720.167969 692.363281 719.625 693.308594 719.058594 C 694.257812 718.492188 695.1875 717.902344 696.105469 717.289062 C 697.019531 716.675781 697.921875 716.042969 698.804688 715.382812 C 699.691406 714.726562 700.5625 714.050781 701.414062 713.347656 C 702.265625 712.648438 703.101562 711.929688 703.917969 711.191406 C 704.734375 710.449219 705.53125 709.6875 706.3125 708.910156 C 707.089844 708.128906 707.851562 707.332031 708.589844 706.515625 C 709.332031 705.699219 710.050781 704.863281 710.75 704.011719 C 711.449219 703.160156 712.128906 702.289062 712.785156 701.40625 C 713.441406 700.519531 714.078125 699.617188 714.691406 698.703125 C 715.304688 697.785156 715.894531 696.855469 716.460938 695.910156 C 717.027344 694.964844 717.570312 694.003906 718.089844 693.03125 C 718.609375 692.058594 719.105469 691.074219 719.578125 690.078125 C 720.050781 689.082031 720.5 688.074219 720.921875 687.058594 C 721.34375 686.039062 721.742188 685.011719 722.113281 683.972656 C 722.484375 682.933594 722.832031 681.886719 723.152344 680.832031 C 723.472656 679.777344 723.765625 678.71875 724.035156 677.648438 C 724.304688 676.578125 724.546875 675.503906 724.761719 674.421875 C 724.980469 673.339844 725.167969 672.253906 725.332031 671.164062 C 725.492188 670.074219 725.628906 668.980469 725.738281 667.882812 C 725.847656 666.785156 725.929688 665.6875 725.984375 664.585938 C 726.039062 663.484375 726.066406 662.382812 726.070312 661.28125 L 726.070312 106.707031 C 726.066406 105.605469 726.039062 104.503906 725.984375 103.402344 C 725.929688 102.300781 725.847656 101.203125 725.738281 100.105469 C 725.628906 99.007812 725.492188 97.914062 725.332031 96.824219 C 725.167969 95.734375 724.980469 94.648438 724.761719 93.566406 C 724.546875 92.484375 724.304688 91.410156 724.035156 90.339844 C 723.765625 89.269531 723.472656 88.210938 723.152344 87.15625 C 722.832031 86.101562 722.484375 85.054688 722.113281 84.015625 C 721.742188 82.976562 721.34375 81.949219 720.921875 80.929688 C 720.5 79.914062 720.050781 78.90625 719.578125 77.910156 C 719.105469 76.914062 718.613281 75.929688 718.089844 74.957031 C 717.570312 73.984375 717.027344 73.023438 716.460938 72.078125 C 715.894531 71.132812 715.304688 70.203125 714.691406 69.285156 C 714.078125 68.371094 713.441406 67.46875 712.785156 66.582031 C 712.128906 65.699219 711.449219 64.828125 710.75 63.976562 C 710.050781 63.125 709.332031 62.289062 708.589844 61.472656 C 707.851562 60.65625 707.089844 59.859375 706.3125 59.078125 C 705.53125 58.300781 704.734375 57.539062 703.917969 56.796875 C 703.101562 56.058594 702.265625 55.339844 701.414062 54.636719 C 700.5625 53.9375 699.691406 53.261719 698.804688 52.605469 C 697.921875 51.945312 697.019531 51.3125 696.105469 50.699219 C 695.1875 50.085938 694.257812 49.496094 693.3125 48.929688 C 692.363281 48.363281 691.40625 47.820312 690.433594 47.296875 C 689.460938 46.777344 688.476562 46.28125 687.480469 45.8125 C 686.484375 45.339844 685.476562 44.890625 684.457031 44.46875 C 683.441406 44.046875 682.414062 43.648438 681.375 43.277344 C 680.335938 42.90625 679.289062 42.558594 678.234375 42.238281 C 677.179688 41.917969 676.117188 41.621094 675.050781 41.355469 C 673.980469 41.085938 672.90625 40.84375 671.824219 40.628906 C 670.742188 40.410156 669.65625 40.222656 668.566406 40.058594 C 667.476562 39.898438 666.382812 39.761719 665.285156 39.652344 C 664.1875 39.542969 663.089844 39.460938 661.988281 39.40625 C 660.886719 39.351562 659.785156 39.320312 658.683594 39.320312 L 110.019531 39.320312 C 107.007812 39.328125 104.011719 39.539062 101.027344 39.945312 C 98.046875 40.355469 95.105469 40.960938 92.203125 41.765625 C 89.300781 42.566406 86.464844 43.558594 83.695312 44.738281 C 80.929688 45.921875 78.25 47.28125 75.664062 48.824219 C 73.078125 50.363281 70.601562 52.066406 68.246094 53.9375 C 65.886719 55.808594 63.660156 57.828125 61.574219 59.996094 C 59.484375 62.164062 57.550781 64.460938 55.769531 66.886719 C 53.984375 69.316406 52.375 71.847656 50.933594 74.492188 C 48.261719 79.414062 46.242188 84.589844 44.871094 90.019531 C 43.5 95.453125 42.824219 100.96875 42.84375 106.566406 L 42.84375 661.28125 C 42.84375 662.378906 42.871094 663.480469 42.925781 664.578125 C 42.980469 665.679688 43.0625 666.773438 43.171875 667.871094 C 43.28125 668.964844 43.414062 670.054688 43.578125 671.144531 C 43.738281 672.234375 43.929688 673.316406 44.144531 674.394531 C 44.359375 675.476562 44.601562 676.546875 44.867188 677.617188 C 45.136719 678.683594 45.429688 679.742188 45.75 680.796875 C 46.066406 681.847656 46.414062 682.894531 46.785156 683.929688 C 47.152344 684.964844 47.550781 685.992188 47.96875 687.007812 C 48.390625 688.027344 48.835938 689.03125 49.304688 690.027344 C 49.777344 691.019531 50.269531 692.003906 50.789062 692.972656 C 51.308594 693.945312 51.847656 694.902344 52.414062 695.847656 C 52.976562 696.792969 53.566406 697.722656 54.175781 698.636719 C 54.789062 699.550781 55.417969 700.453125 56.074219 701.335938 C 56.730469 702.222656 57.40625 703.089844 58.101562 703.941406 C 58.796875 704.792969 59.515625 705.625 60.253906 706.441406 C 60.992188 707.257812 61.75 708.054688 62.527344 708.835938 C 63.300781 709.613281 64.097656 710.375 64.910156 711.113281 C 65.726562 711.855469 66.558594 712.574219 67.40625 713.273438 C 68.257812 713.972656 69.121094 714.652344 70.003906 715.308594 C 70.886719 715.96875 71.785156 716.601562 72.699219 717.214844 C 73.613281 717.828125 74.539062 718.421875 75.480469 718.988281 C 76.425781 719.554688 77.378906 720.101562 78.347656 720.621094 C 79.320312 721.144531 80.300781 721.640625 81.292969 722.113281 C 82.285156 722.585938 83.289062 723.035156 84.304688 723.457031 C 85.320312 723.882812 86.347656 724.28125 87.382812 724.65625 C 88.417969 725.03125 89.460938 725.378906 90.511719 725.699219 C 91.5625 726.023438 92.621094 726.320312 93.6875 726.589844 C 94.757812 726.863281 95.828125 727.105469 96.90625 727.324219 C 97.984375 727.542969 99.066406 727.734375 100.15625 727.902344 C 101.242188 728.066406 102.335938 728.207031 103.429688 728.316406 C 104.523438 728.429688 105.621094 728.515625 106.71875 728.574219 C 107.820312 728.632812 108.917969 728.664062 110.019531 728.667969 Z M 65.984375 76.953125 C 67.195312 75.15625 68.507812 73.433594 69.929688 71.796875 C 71.347656 70.15625 72.863281 68.609375 74.472656 67.15625 C 76.082031 65.703125 77.769531 64.351562 79.542969 63.105469 C 81.316406 61.855469 83.160156 60.71875 85.070312 59.695312 C 86.984375 58.675781 88.949219 57.769531 90.972656 56.988281 C 92.996094 56.203125 95.058594 55.546875 97.160156 55.015625 C 99.261719 54.484375 101.386719 54.082031 103.539062 53.808594 C 105.691406 53.539062 107.851562 53.398438 110.019531 53.390625 L 658.683594 53.390625 C 660.425781 53.390625 662.167969 53.480469 663.90625 53.652344 C 665.644531 53.824219 667.367188 54.082031 669.078125 54.425781 C 670.789062 54.769531 672.480469 55.191406 674.152344 55.699219 C 675.820312 56.210938 677.464844 56.796875 679.074219 57.464844 C 680.6875 58.136719 682.261719 58.882812 683.800781 59.707031 C 685.339844 60.53125 686.835938 61.425781 688.289062 62.398438 C 689.738281 63.367188 691.140625 64.40625 692.488281 65.511719 C 693.835938 66.621094 695.128906 67.792969 696.363281 69.027344 C 697.597656 70.261719 698.769531 71.550781 699.875 72.902344 C 700.984375 74.25 702.023438 75.652344 702.992188 77.101562 C 703.964844 78.554688 704.859375 80.046875 705.683594 81.585938 C 706.507812 83.125 707.253906 84.703125 707.921875 86.316406 C 708.59375 87.925781 709.179688 89.566406 709.6875 91.238281 C 710.195312 92.910156 710.621094 94.597656 710.964844 96.3125 C 711.308594 98.023438 711.566406 99.746094 711.738281 101.484375 C 711.910156 103.222656 712 104.960938 712 106.707031 L 712 174.515625 L 56.910156 174.515625 L 56.910156 106.707031 C 56.898438 101.40625 57.664062 96.21875 59.210938 91.148438 C 60.757812 86.078125 63.015625 81.347656 65.984375 76.953125 Z M 56.910156 188.585938 L 711.789062 188.585938 L 711.789062 661.28125 C 711.789062 663.019531 711.699219 664.757812 711.527344 666.492188 C 711.355469 668.222656 711.097656 669.945312 710.757812 671.652344 C 710.417969 673.359375 709.996094 675.046875 709.488281 676.710938 C 708.984375 678.378906 708.398438 680.015625 707.734375 681.625 C 707.066406 683.234375 706.324219 684.804688 705.503906 686.34375 C 704.683594 687.878906 703.792969 689.371094 702.828125 690.820312 C 701.859375 692.269531 700.828125 693.667969 699.722656 695.015625 C 698.621094 696.363281 697.457031 697.652344 696.226562 698.886719 C 695 700.121094 693.710938 701.292969 692.367188 702.398438 C 691.027344 703.507812 689.632812 704.546875 688.1875 705.519531 C 686.742188 706.488281 685.253906 707.386719 683.71875 708.214844 C 682.1875 709.039062 680.617188 709.789062 679.011719 710.460938 C 677.402344 711.132812 675.769531 711.726562 674.105469 712.238281 C 672.441406 712.75 670.753906 713.179688 669.050781 713.527344 C 667.34375 713.875 665.625 714.136719 663.890625 714.316406 C 662.160156 714.496094 660.421875 714.589844 658.683594 714.597656 L 110.019531 714.597656 C 108.273438 714.597656 106.53125 714.507812 104.792969 714.335938 C 103.058594 714.164062 101.332031 713.90625 99.621094 713.5625 C 97.910156 713.21875 96.21875 712.796875 94.546875 712.289062 C 92.878906 711.777344 91.238281 711.191406 89.625 710.523438 C 88.011719 709.851562 86.4375 709.105469 84.898438 708.28125 C 83.359375 707.457031 81.863281 706.5625 80.414062 705.589844 C 78.960938 704.621094 77.5625 703.582031 76.210938 702.476562 C 74.863281 701.367188 73.570312 700.195312 72.335938 698.960938 C 71.101562 697.726562 69.929688 696.4375 68.824219 695.085938 C 67.714844 693.738281 66.675781 692.335938 65.707031 690.886719 C 64.738281 689.433594 63.839844 687.941406 63.015625 686.402344 C 62.191406 684.863281 61.445312 683.285156 60.777344 681.671875 C 60.109375 680.0625 59.519531 678.421875 59.011719 676.75 C 58.503906 675.078125 58.078125 673.390625 57.734375 671.675781 C 57.394531 669.964844 57.136719 668.242188 56.960938 666.503906 C 56.789062 664.765625 56.703125 663.027344 56.699219 661.28125 Z M 123.101562 141.738281 C 124.027344 141.738281 124.949219 141.691406 125.867188 141.601562 C 126.785156 141.511719 127.699219 141.375 128.605469 141.195312 C 129.511719 141.011719 130.40625 140.789062 131.289062 140.519531 C 132.175781 140.25 133.042969 139.9375 133.894531 139.585938 C 134.75 139.230469 135.582031 138.835938 136.398438 138.398438 C 137.210938 137.960938 138.003906 137.484375 138.769531 136.972656 C 139.539062 136.457031 140.277344 135.90625 140.992188 135.316406 C 141.703125 134.730469 142.386719 134.109375 143.039062 133.453125 C 143.691406 132.800781 144.308594 132.113281 144.894531 131.398438 C 145.476562 130.683594 146.023438 129.941406 146.535156 129.171875 C 147.046875 128.402344 147.519531 127.609375 147.953125 126.792969 C 148.386719 125.976562 148.777344 125.140625 149.128906 124.285156 C 149.480469 123.429688 149.789062 122.5625 150.054688 121.675781 C 150.316406 120.792969 150.539062 119.894531 150.714844 118.988281 C 150.894531 118.082031 151.023438 117.167969 151.113281 116.25 C 151.199219 115.328125 151.238281 114.40625 151.234375 113.484375 C 151.230469 112.558594 151.183594 111.636719 151.089844 110.71875 C 150.992188 109.800781 150.855469 108.886719 150.667969 107.980469 C 150.484375 107.078125 150.257812 106.183594 149.984375 105.300781 C 149.710938 104.417969 149.394531 103.550781 149.039062 102.699219 C 148.679688 101.847656 148.28125 101.015625 147.839844 100.203125 C 147.402344 99.390625 146.921875 98.601562 146.402344 97.835938 C 145.886719 97.070312 145.332031 96.332031 144.742188 95.621094 C 144.152344 94.910156 143.527344 94.230469 142.871094 93.582031 C 142.210938 92.933594 141.523438 92.316406 140.808594 91.734375 C 140.089844 91.152344 139.34375 90.609375 138.570312 90.101562 C 137.800781 89.59375 137.003906 89.125 136.1875 88.695312 C 135.371094 88.265625 134.53125 87.875 133.675781 87.527344 C 132.820312 87.179688 131.949219 86.875 131.0625 86.617188 C 130.175781 86.355469 129.28125 86.136719 128.371094 85.964844 C 127.464844 85.789062 126.550781 85.664062 125.628906 85.578125 C 124.710938 85.496094 123.789062 85.457031 122.863281 85.464844 C 121.941406 85.472656 121.019531 85.527344 120.101562 85.625 C 119.183594 85.722656 118.269531 85.867188 117.367188 86.054688 C 116.460938 86.242188 115.566406 86.476562 114.6875 86.753906 C 113.804688 87.027344 112.9375 87.347656 112.089844 87.710938 C 111.238281 88.070312 110.40625 88.472656 109.597656 88.917969 C 108.785156 89.359375 108 89.84375 107.238281 90.363281 C 106.472656 90.882812 105.738281 91.441406 105.03125 92.035156 C 104.320312 92.628906 103.644531 93.253906 102.996094 93.914062 C 102.351562 94.574219 101.738281 95.265625 101.160156 95.984375 C 100.582031 96.707031 100.039062 97.453125 99.535156 98.226562 C 99.03125 99 98.566406 99.796875 98.136719 100.617188 C 97.710938 101.4375 97.328125 102.273438 96.984375 103.132812 C 96.640625 103.992188 96.339844 104.863281 96.082031 105.75 C 95.824219 106.636719 95.609375 107.535156 95.441406 108.445312 C 95.269531 109.351562 95.144531 110.265625 95.066406 111.1875 C 94.988281 112.105469 94.953125 113.03125 94.964844 113.953125 C 94.976562 114.867188 95.03125 115.777344 95.132812 116.6875 C 95.234375 117.597656 95.378906 118.496094 95.566406 119.390625 C 95.753906 120.289062 95.984375 121.171875 96.257812 122.042969 C 96.535156 122.914062 96.847656 123.769531 97.207031 124.613281 C 97.566406 125.453125 97.964844 126.277344 98.402344 127.078125 C 98.839844 127.882812 99.316406 128.660156 99.828125 129.417969 C 100.34375 130.171875 100.890625 130.902344 101.476562 131.605469 C 102.0625 132.308594 102.679688 132.980469 103.328125 133.621094 C 103.980469 134.265625 104.660156 134.875 105.371094 135.449219 C 106.082031 136.027344 106.816406 136.566406 107.578125 137.070312 C 108.339844 137.574219 109.125 138.039062 109.933594 138.46875 C 110.742188 138.894531 111.570312 139.285156 112.414062 139.628906 C 113.261719 139.976562 114.121094 140.28125 114.996094 140.546875 C 115.871094 140.808594 116.757812 141.03125 117.65625 141.207031 C 118.550781 141.382812 119.457031 141.515625 120.367188 141.605469 C 121.277344 141.695312 122.1875 141.738281 123.101562 141.738281 Z M 123.101562 100.238281 C 124.03125 100.238281 124.949219 100.328125 125.859375 100.511719 C 126.769531 100.691406 127.65625 100.964844 128.511719 101.320312 C 129.371094 101.679688 130.183594 102.117188 130.953125 102.632812 C 131.722656 103.152344 132.4375 103.742188 133.089844 104.402344 C 133.742188 105.0625 134.324219 105.777344 134.835938 106.554688 C 135.347656 107.328125 135.78125 108.144531 136.128906 109.003906 C 136.480469 109.867188 136.742188 110.753906 136.914062 111.664062 C 137.089844 112.578125 137.171875 113.496094 137.164062 114.425781 C 137.15625 115.355469 137.058594 116.273438 136.867188 117.179688 C 136.679688 118.089844 136.402344 118.972656 136.039062 119.824219 C 135.671875 120.679688 135.226562 121.492188 134.703125 122.257812 C 134.179688 123.023438 133.582031 123.730469 132.917969 124.378906 C 132.253906 125.027344 131.53125 125.601562 130.753906 126.109375 C 129.972656 126.613281 129.152344 127.039062 128.289062 127.378906 C 127.425781 127.722656 126.539062 127.976562 125.625 128.144531 C 124.710938 128.3125 123.789062 128.386719 122.863281 128.371094 C 121.933594 128.355469 121.015625 128.25 120.109375 128.050781 C 119.199219 127.855469 118.320312 127.570312 117.46875 127.199219 C 116.617188 126.828125 115.8125 126.375 115.050781 125.84375 C 114.289062 125.3125 113.585938 124.714844 112.945312 124.042969 C 112.300781 123.371094 111.730469 122.644531 111.230469 121.863281 C 110.734375 121.078125 110.316406 120.253906 109.980469 119.390625 C 109.644531 118.523438 109.398438 117.632812 109.238281 116.71875 C 109.078125 115.804688 109.011719 114.882812 109.035156 113.953125 C 109.054688 113.042969 109.167969 112.144531 109.363281 111.257812 C 109.558594 110.371094 109.839844 109.511719 110.203125 108.675781 C 110.566406 107.84375 111.007812 107.054688 111.523438 106.304688 C 112.042969 105.558594 112.625 104.867188 113.277344 104.230469 C 113.925781 103.597656 114.632812 103.03125 115.394531 102.535156 C 116.15625 102.035156 116.957031 101.617188 117.796875 101.273438 C 118.640625 100.929688 119.507812 100.671875 120.398438 100.496094 C 121.292969 100.324219 122.191406 100.238281 123.101562 100.238281 Z M 193.019531 141.738281 C 193.945312 141.738281 194.867188 141.691406 195.785156 141.601562 C 196.707031 141.511719 197.617188 141.375 198.523438 141.195312 C 199.429688 141.011719 200.324219 140.789062 201.210938 140.519531 C 202.09375 140.25 202.960938 139.9375 203.816406 139.585938 C 204.667969 139.230469 205.503906 138.835938 206.316406 138.398438 C 207.132812 137.960938 207.921875 137.484375 208.6875 136.972656 C 209.457031 136.457031 210.195312 135.90625 210.910156 135.316406 C 211.625 134.730469 212.304688 134.109375 212.957031 133.453125 C 213.609375 132.800781 214.226562 132.113281 214.8125 131.398438 C 215.394531 130.683594 215.945312 129.941406 216.457031 129.171875 C 216.96875 128.402344 217.4375 127.609375 217.871094 126.792969 C 218.304688 125.976562 218.699219 125.140625 219.046875 124.285156 C 219.398438 123.429688 219.707031 122.5625 219.972656 121.675781 C 220.238281 120.792969 220.457031 119.894531 220.636719 118.988281 C 220.8125 118.082031 220.945312 117.167969 221.03125 116.25 C 221.117188 115.328125 221.160156 114.40625 221.15625 113.484375 C 221.152344 112.558594 221.101562 111.636719 221.007812 110.71875 C 220.914062 109.800781 220.773438 108.886719 220.589844 107.980469 C 220.40625 107.078125 220.175781 106.183594 219.902344 105.300781 C 219.628906 104.417969 219.316406 103.550781 218.957031 102.699219 C 218.597656 101.847656 218.199219 101.015625 217.761719 100.203125 C 217.320312 99.390625 216.839844 98.601562 216.324219 97.835938 C 215.804688 97.070312 215.25 96.332031 214.660156 95.621094 C 214.070312 94.910156 213.445312 94.230469 212.789062 93.582031 C 212.132812 92.933594 211.445312 92.316406 210.726562 91.734375 C 210.007812 91.152344 209.261719 90.609375 208.492188 90.101562 C 207.71875 89.59375 206.925781 89.125 206.105469 88.695312 C 205.289062 88.265625 204.453125 87.875 203.597656 87.527344 C 202.738281 87.179688 201.867188 86.875 200.984375 86.617188 C 200.097656 86.355469 199.199219 86.136719 198.292969 85.964844 C 197.382812 85.789062 196.46875 85.664062 195.550781 85.578125 C 194.628906 85.496094 193.707031 85.457031 192.785156 85.464844 C 191.859375 85.472656 190.9375 85.527344 190.019531 85.625 C 189.101562 85.722656 188.191406 85.867188 187.285156 86.054688 C 186.378906 86.242188 185.488281 86.476562 184.605469 86.753906 C 183.722656 87.027344 182.859375 87.347656 182.007812 87.710938 C 181.15625 88.070312 180.328125 88.472656 179.515625 88.917969 C 178.707031 89.359375 177.917969 89.84375 177.15625 90.363281 C 176.394531 90.882812 175.65625 91.441406 174.949219 92.035156 C 174.242188 92.628906 173.5625 93.253906 172.917969 93.914062 C 172.269531 94.574219 171.660156 95.265625 171.078125 95.984375 C 170.5 96.707031 169.960938 97.453125 169.453125 98.226562 C 168.949219 99 168.484375 99.796875 168.058594 100.617188 C 167.632812 101.4375 167.246094 102.273438 166.902344 103.132812 C 166.558594 103.992188 166.257812 104.863281 166 105.75 C 165.742188 106.636719 165.527344 107.535156 165.359375 108.445312 C 165.191406 109.351562 165.066406 110.265625 164.988281 111.1875 C 164.90625 112.105469 164.875 113.03125 164.886719 113.953125 C 164.894531 114.867188 164.953125 115.777344 165.050781 116.6875 C 165.152344 117.597656 165.296875 118.496094 165.484375 119.390625 C 165.671875 120.289062 165.90625 121.171875 166.179688 122.042969 C 166.453125 122.914062 166.769531 123.769531 167.125 124.613281 C 167.484375 125.453125 167.882812 126.277344 168.320312 127.078125 C 168.757812 127.882812 169.234375 128.660156 169.746094 129.417969 C 170.261719 130.171875 170.8125 130.902344 171.394531 131.605469 C 171.980469 132.308594 172.597656 132.980469 173.25 133.621094 C 173.898438 134.265625 174.578125 134.875 175.289062 135.449219 C 176 136.027344 176.734375 136.566406 177.5 137.070312 C 178.261719 137.574219 179.046875 138.039062 179.855469 138.46875 C 180.660156 138.894531 181.488281 139.285156 182.335938 139.628906 C 183.179688 139.976562 184.039062 140.28125 184.917969 140.546875 C 185.792969 140.808594 186.679688 141.03125 187.574219 141.207031 C 188.472656 141.382812 189.375 141.515625 190.285156 141.605469 C 191.195312 141.695312 192.105469 141.738281 193.019531 141.738281 Z M 193.019531 100.238281 C 193.949219 100.238281 194.871094 100.328125 195.78125 100.511719 C 196.691406 100.691406 197.574219 100.964844 198.429688 101.320312 C 199.289062 101.679688 200.101562 102.117188 200.871094 102.632812 C 201.644531 103.152344 202.355469 103.742188 203.007812 104.402344 C 203.664062 105.0625 204.246094 105.777344 204.757812 106.554688 C 205.269531 107.328125 205.699219 108.144531 206.050781 109.003906 C 206.398438 109.867188 206.660156 110.753906 206.835938 111.664062 C 207.007812 112.578125 207.09375 113.496094 207.085938 114.425781 C 207.078125 115.355469 206.976562 116.273438 206.789062 117.179688 C 206.597656 118.089844 206.320312 118.972656 205.957031 119.824219 C 205.59375 120.679688 205.148438 121.492188 204.621094 122.257812 C 204.097656 123.023438 203.503906 123.730469 202.839844 124.378906 C 202.171875 125.027344 201.453125 125.601562 200.671875 126.109375 C 199.894531 126.613281 199.070312 127.039062 198.207031 127.378906 C 197.347656 127.722656 196.457031 127.976562 195.542969 128.144531 C 194.628906 128.3125 193.710938 128.386719 192.78125 128.371094 C 191.851562 128.355469 190.933594 128.25 190.027344 128.050781 C 189.121094 127.855469 188.242188 127.570312 187.390625 127.199219 C 186.539062 126.828125 185.730469 126.375 184.96875 125.84375 C 184.207031 125.3125 183.507812 124.714844 182.863281 124.042969 C 182.222656 123.371094 181.648438 122.644531 181.152344 121.863281 C 180.652344 121.078125 180.234375 120.253906 179.898438 119.390625 C 179.5625 118.523438 179.316406 117.632812 179.15625 116.71875 C 178.996094 115.804688 178.929688 114.882812 178.953125 113.953125 C 178.976562 113.042969 179.085938 112.144531 179.28125 111.257812 C 179.480469 110.371094 179.757812 109.511719 180.125 108.675781 C 180.488281 107.84375 180.925781 107.054688 181.445312 106.304688 C 181.960938 105.558594 182.546875 104.867188 183.195312 104.230469 C 183.847656 103.597656 184.550781 103.03125 185.3125 102.535156 C 186.074219 102.035156 186.875 101.617188 187.71875 101.273438 C 188.558594 100.929688 189.425781 100.671875 190.320312 100.496094 C 191.210938 100.324219 192.113281 100.238281 193.019531 100.238281 Z M 267.300781 141.738281 C 268.226562 141.738281 269.148438 141.691406 270.066406 141.601562 C 270.988281 141.511719 271.898438 141.375 272.804688 141.195312 C 273.710938 141.011719 274.605469 140.789062 275.492188 140.519531 C 276.375 140.25 277.242188 139.9375 278.097656 139.585938 C 278.949219 139.230469 279.78125 138.835938 280.597656 138.398438 C 281.410156 137.960938 282.203125 137.484375 282.96875 136.972656 C 283.738281 136.457031 284.476562 135.90625 285.191406 135.316406 C 285.902344 134.730469 286.585938 134.109375 287.238281 133.453125 C 287.890625 132.800781 288.507812 132.113281 289.09375 131.398438 C 289.675781 130.683594 290.226562 129.941406 290.734375 129.171875 C 291.246094 128.402344 291.71875 127.609375 292.152344 126.792969 C 292.585938 125.976562 292.976562 125.140625 293.328125 124.285156 C 293.679688 123.429688 293.988281 122.5625 294.253906 121.675781 C 294.519531 120.792969 294.738281 119.894531 294.914062 118.988281 C 295.09375 118.082031 295.226562 117.167969 295.3125 116.25 C 295.398438 115.328125 295.441406 114.40625 295.4375 113.484375 C 295.433594 112.558594 295.382812 111.636719 295.289062 110.71875 C 295.195312 109.800781 295.054688 108.886719 294.871094 107.980469 C 294.683594 107.078125 294.457031 106.183594 294.183594 105.300781 C 293.910156 104.417969 293.597656 103.550781 293.238281 102.699219 C 292.878906 101.847656 292.480469 101.015625 292.039062 100.203125 C 291.601562 99.390625 291.121094 98.601562 290.605469 97.835938 C 290.085938 97.070312 289.53125 96.332031 288.941406 95.621094 C 288.351562 94.910156 287.726562 94.230469 287.070312 93.582031 C 286.414062 92.933594 285.726562 92.316406 285.007812 91.734375 C 284.289062 91.152344 283.542969 90.609375 282.773438 90.101562 C 282 89.59375 281.207031 89.125 280.386719 88.695312 C 279.570312 88.265625 278.734375 87.875 277.875 87.527344 C 277.019531 87.179688 276.148438 86.875 275.261719 86.617188 C 274.375 86.355469 273.480469 86.136719 272.574219 85.964844 C 271.664062 85.789062 270.75 85.664062 269.832031 85.578125 C 268.910156 85.496094 267.988281 85.457031 267.066406 85.464844 C 266.140625 85.472656 265.21875 85.527344 264.300781 85.625 C 263.382812 85.722656 262.46875 85.867188 261.566406 86.054688 C 260.660156 86.242188 259.769531 86.476562 258.886719 86.753906 C 258.003906 87.027344 257.140625 87.347656 256.289062 87.710938 C 255.4375 88.070312 254.609375 88.472656 253.796875 88.917969 C 252.988281 89.359375 252.199219 89.84375 251.4375 90.363281 C 250.671875 90.882812 249.9375 91.441406 249.230469 92.035156 C 248.523438 92.628906 247.84375 93.253906 247.199219 93.914062 C 246.550781 94.574219 245.9375 95.265625 245.359375 95.984375 C 244.78125 96.707031 244.242188 97.453125 243.734375 98.226562 C 243.230469 99 242.765625 99.796875 242.339844 100.617188 C 241.914062 101.4375 241.527344 102.273438 241.183594 103.132812 C 240.839844 103.992188 240.539062 104.863281 240.28125 105.75 C 240.023438 106.636719 239.808594 107.535156 239.640625 108.445312 C 239.472656 109.351562 239.347656 110.265625 239.265625 111.1875 C 239.1875 112.105469 239.152344 113.03125 239.164062 113.953125 C 239.175781 114.867188 239.234375 115.777344 239.332031 116.6875 C 239.433594 117.597656 239.578125 118.496094 239.765625 119.390625 C 239.953125 120.289062 240.183594 121.171875 240.460938 122.042969 C 240.734375 122.914062 241.050781 123.769531 241.40625 124.613281 C 241.765625 125.453125 242.164062 126.277344 242.601562 127.078125 C 243.039062 127.882812 243.515625 128.660156 244.027344 129.417969 C 244.542969 130.171875 245.089844 130.902344 245.675781 131.605469 C 246.261719 132.308594 246.878906 132.980469 247.53125 133.621094 C 248.179688 134.265625 248.859375 134.875 249.570312 135.449219 C 250.28125 136.027344 251.015625 136.566406 251.777344 137.070312 C 252.542969 137.574219 253.328125 138.039062 254.132812 138.46875 C 254.941406 138.894531 255.769531 139.285156 256.613281 139.628906 C 257.460938 139.976562 258.320312 140.28125 259.195312 140.546875 C 260.074219 140.808594 260.957031 141.03125 261.855469 141.207031 C 262.753906 141.382812 263.65625 141.515625 264.566406 141.605469 C 265.476562 141.695312 266.386719 141.738281 267.300781 141.738281 Z M 267.300781 100.238281 C 268.230469 100.238281 269.148438 100.328125 270.0625 100.511719 C 270.972656 100.691406 271.855469 100.964844 272.710938 101.320312 C 273.570312 101.679688 274.382812 102.117188 275.152344 102.632812 C 275.921875 103.152344 276.636719 103.742188 277.289062 104.402344 C 277.941406 105.0625 278.527344 105.777344 279.039062 106.554688 C 279.550781 107.328125 279.980469 108.144531 280.328125 109.003906 C 280.679688 109.867188 280.941406 110.753906 281.117188 111.664062 C 281.289062 112.578125 281.375 113.496094 281.367188 114.425781 C 281.359375 115.355469 281.257812 116.273438 281.070312 117.179688 C 280.878906 118.089844 280.601562 118.972656 280.238281 119.824219 C 279.871094 120.679688 279.429688 121.492188 278.902344 122.257812 C 278.378906 123.023438 277.785156 123.730469 277.117188 124.378906 C 276.453125 125.027344 275.730469 125.601562 274.953125 126.109375 C 274.171875 126.613281 273.351562 127.039062 272.488281 127.378906 C 271.625 127.722656 270.738281 127.976562 269.824219 128.144531 C 268.910156 128.3125 267.988281 128.386719 267.0625 128.371094 C 266.132812 128.355469 265.214844 128.25 264.308594 128.050781 C 263.402344 127.855469 262.519531 127.570312 261.671875 127.199219 C 260.820312 126.828125 260.011719 126.375 259.25 125.84375 C 258.488281 125.3125 257.785156 124.714844 257.144531 124.042969 C 256.5 123.371094 255.929688 122.644531 255.433594 121.863281 C 254.933594 121.078125 254.515625 120.253906 254.179688 119.390625 C 253.84375 118.523438 253.597656 117.632812 253.4375 116.71875 C 253.277344 115.804688 253.210938 114.882812 253.234375 113.953125 C 253.257812 113.042969 253.367188 112.144531 253.5625 111.257812 C 253.761719 110.371094 254.039062 109.511719 254.402344 108.675781 C 254.765625 107.84375 255.207031 107.054688 255.726562 106.304688 C 256.242188 105.558594 256.824219 104.867188 257.476562 104.230469 C 258.128906 103.597656 258.832031 103.03125 259.59375 102.535156 C 260.355469 102.035156 261.15625 101.617188 262 101.273438 C 262.839844 100.929688 263.707031 100.671875 264.601562 100.496094 C 265.492188 100.324219 266.394531 100.238281 267.300781 100.238281 Z M 390.75 113.953125 C 390.75 113.492188 390.796875 113.035156 390.886719 112.582031 C 390.976562 112.128906 391.109375 111.6875 391.285156 111.261719 C 391.464844 110.835938 391.679688 110.429688 391.9375 110.046875 C 392.191406 109.660156 392.484375 109.304688 392.8125 108.980469 C 393.136719 108.652344 393.492188 108.359375 393.878906 108.105469 C 394.261719 107.847656 394.667969 107.632812 395.09375 107.453125 C 395.519531 107.277344 395.960938 107.144531 396.414062 107.054688 C 396.867188 106.964844 397.324219 106.917969 397.785156 106.917969 L 660.230469 106.917969 C 660.691406 106.917969 661.148438 106.964844 661.601562 107.054688 C 662.054688 107.144531 662.496094 107.277344 662.921875 107.453125 C 663.347656 107.632812 663.753906 107.847656 664.136719 108.105469 C 664.519531 108.359375 664.875 108.652344 665.203125 108.980469 C 665.53125 109.304688 665.820312 109.660156 666.078125 110.046875 C 666.335938 110.429688 666.550781 110.835938 666.726562 111.261719 C 666.90625 111.6875 667.039062 112.128906 667.128906 112.582031 C 667.21875 113.035156 667.261719 113.492188 667.261719 113.953125 C 667.261719 114.414062 667.21875 114.871094 667.128906 115.324219 C 667.039062 115.777344 666.90625 116.21875 666.726562 116.644531 C 666.550781 117.070312 666.335938 117.476562 666.078125 117.859375 C 665.820312 118.246094 665.53125 118.601562 665.203125 118.925781 C 664.875 119.253906 664.519531 119.546875 664.136719 119.800781 C 663.753906 120.058594 663.347656 120.273438 662.921875 120.453125 C 662.496094 120.628906 662.054688 120.761719 661.601562 120.851562 C 661.148438 120.941406 660.691406 120.988281 660.230469 120.988281 L 397.785156 120.988281 C 397.324219 120.988281 396.867188 120.941406 396.414062 120.851562 C 395.960938 120.761719 395.519531 120.628906 395.09375 120.453125 C 394.667969 120.273438 394.261719 120.058594 393.878906 119.800781 C 393.492188 119.546875 393.136719 119.253906 392.8125 118.925781 C 392.484375 118.601562 392.191406 118.246094 391.9375 117.859375 C 391.679688 117.476562 391.464844 117.070312 391.285156 116.644531 C 391.109375 116.21875 390.976562 115.777344 390.886719 115.324219 C 390.796875 114.871094 390.75 114.414062 390.75 113.953125 Z M 120.570312 469.742188 L 380.832031 469.742188 L 386.53125 489.085938 C 386.617188 489.375 386.722656 489.660156 386.84375 489.941406 C 386.96875 490.21875 387.109375 490.488281 387.265625 490.746094 C 387.425781 491.007812 387.601562 491.257812 387.789062 491.492188 C 387.980469 491.730469 388.1875 491.957031 388.40625 492.167969 C 388.625 492.378906 388.855469 492.574219 389.101562 492.753906 C 389.347656 492.933594 389.601562 493.097656 389.871094 493.246094 C 390.136719 493.394531 390.410156 493.523438 390.695312 493.632812 C 390.976562 493.746094 391.265625 493.839844 391.5625 493.914062 C 391.855469 493.988281 392.15625 494.042969 392.457031 494.078125 C 392.761719 494.113281 393.0625 494.128906 393.367188 494.125 C 393.671875 494.121094 393.976562 494.097656 394.277344 494.054688 C 394.578125 494.011719 394.875 493.949219 395.167969 493.867188 C 395.460938 493.785156 395.75 493.683594 396.027344 493.566406 C 396.308594 493.445312 396.578125 493.308594 396.84375 493.15625 C 397.105469 493 397.355469 492.832031 397.597656 492.644531 C 397.835938 492.457031 398.0625 492.253906 398.277344 492.039062 L 404.398438 485.917969 L 434.433594 516.023438 C 434.761719 516.355469 435.117188 516.648438 435.5 516.910156 C 435.886719 517.167969 436.292969 517.386719 436.722656 517.566406 C 437.152344 517.742188 437.59375 517.878906 438.046875 517.96875 C 438.503906 518.058594 438.964844 518.105469 439.425781 518.105469 C 439.890625 518.105469 440.351562 518.058594 440.808594 517.96875 C 441.261719 517.878906 441.703125 517.742188 442.132812 517.566406 C 442.5625 517.386719 442.96875 517.167969 443.351562 516.910156 C 443.738281 516.648438 444.09375 516.355469 444.421875 516.023438 L 468.761719 491.125 C 469.417969 490.460938 469.925781 489.695312 470.277344 488.832031 C 470.632812 487.964844 470.804688 487.066406 470.800781 486.128906 C 470.785156 485.199219 470.605469 484.300781 470.253906 483.441406 C 469.898438 482.578125 469.402344 481.808594 468.761719 481.136719 L 438.652344 451.101562 L 444.773438 444.980469 C 444.992188 444.769531 445.191406 444.546875 445.382812 444.308594 C 445.570312 444.074219 445.742188 443.824219 445.898438 443.566406 C 446.054688 443.308594 446.195312 443.039062 446.316406 442.761719 C 446.4375 442.484375 446.542969 442.203125 446.625 441.914062 C 446.710938 441.621094 446.777344 441.328125 446.824219 441.03125 C 446.871094 440.730469 446.898438 440.429688 446.910156 440.128906 C 446.917969 439.824219 446.90625 439.523438 446.875 439.222656 C 446.84375 438.921875 446.796875 438.625 446.726562 438.332031 C 446.660156 438.035156 446.570312 437.746094 446.464844 437.464844 C 446.359375 437.179688 446.234375 436.90625 446.09375 436.636719 C 445.953125 436.371094 445.792969 436.113281 445.621094 435.867188 C 445.445312 435.621094 445.253906 435.386719 445.050781 435.164062 C 444.84375 434.941406 444.625 434.730469 444.394531 434.539062 C 444.164062 434.34375 443.921875 434.164062 443.664062 434.003906 C 443.410156 433.839844 443.144531 433.695312 442.871094 433.566406 C 442.597656 433.4375 442.316406 433.324219 442.03125 433.234375 L 419.941406 426.691406 L 419.941406 251.824219 C 419.941406 251.359375 419.898438 250.902344 419.808594 250.449219 C 419.71875 249.996094 419.585938 249.558594 419.40625 249.128906 C 419.230469 248.703125 419.015625 248.296875 418.757812 247.914062 C 418.5 247.53125 418.210938 247.175781 417.882812 246.847656 C 417.554688 246.523438 417.199219 246.230469 416.816406 245.972656 C 416.433594 245.71875 416.027344 245.5 415.601562 245.324219 C 415.175781 245.148438 414.734375 245.011719 414.28125 244.921875 C 413.828125 244.832031 413.371094 244.789062 412.910156 244.789062 L 120.570312 244.789062 C 120.109375 244.789062 119.652344 244.832031 119.199219 244.921875 C 118.746094 245.011719 118.304688 245.148438 117.878906 245.324219 C 117.449219 245.5 117.046875 245.71875 116.660156 245.972656 C 116.277344 246.230469 115.921875 246.523438 115.597656 246.847656 C 115.269531 247.175781 114.976562 247.53125 114.722656 247.914062 C 114.464844 248.296875 114.246094 248.703125 114.070312 249.128906 C 113.894531 249.558594 113.761719 249.996094 113.671875 250.449219 C 113.582031 250.902344 113.535156 251.359375 113.535156 251.824219 L 113.535156 462.847656 C 113.542969 463.304688 113.597656 463.753906 113.695312 464.199219 C 113.792969 464.644531 113.929688 465.078125 114.109375 465.496094 C 114.292969 465.914062 114.511719 466.3125 114.769531 466.6875 C 115.027344 467.0625 115.320312 467.410156 115.644531 467.730469 C 115.96875 468.050781 116.324219 468.335938 116.703125 468.585938 C 117.085938 468.835938 117.488281 469.046875 117.910156 469.21875 C 118.332031 469.390625 118.765625 469.519531 119.214844 469.609375 C 119.660156 469.695312 120.113281 469.742188 120.570312 469.742188 Z M 424.023438 456.09375 L 454.128906 486.128906 L 439.144531 501.113281 L 409.109375 471.078125 C 408.785156 470.753906 408.429688 470.464844 408.046875 470.207031 C 407.664062 469.953125 407.257812 469.738281 406.832031 469.5625 C 406.40625 469.386719 405.96875 469.253906 405.519531 469.164062 C 405.066406 469.074219 404.613281 469.03125 404.152344 469.03125 C 403.691406 469.03125 403.234375 469.074219 402.785156 469.164062 C 402.332031 469.253906 401.894531 469.386719 401.46875 469.5625 C 401.042969 469.738281 400.640625 469.953125 400.257812 470.207031 C 399.875 470.464844 399.519531 470.753906 399.191406 471.078125 L 396.449219 473.820312 L 392.582031 460.878906 L 383.648438 430.628906 L 410.9375 438.71875 L 426.765625 443.433594 L 424.023438 446.175781 C 423.699219 446.503906 423.410156 446.855469 423.152344 447.238281 C 422.898438 447.625 422.683594 448.027344 422.507812 448.453125 C 422.332031 448.878906 422.199219 449.316406 422.113281 449.769531 C 422.023438 450.21875 421.976562 450.675781 421.976562 451.136719 C 421.976562 451.59375 422.023438 452.050781 422.113281 452.503906 C 422.199219 452.953125 422.332031 453.390625 422.507812 453.816406 C 422.683594 454.242188 422.898438 454.648438 423.152344 455.03125 C 423.410156 455.414062 423.699219 455.769531 424.023438 456.09375 Z M 127.605469 259.136719 L 405.875 259.136719 L 405.875 422.542969 L 375.207031 413.46875 C 374.59375 413.285156 373.964844 413.1875 373.324219 413.175781 C 372.683594 413.167969 372.054688 413.242188 371.433594 413.402344 C 370.8125 413.5625 370.226562 413.804688 369.671875 414.125 C 369.121094 414.449219 368.617188 414.835938 368.171875 415.296875 C 367.71875 415.746094 367.335938 416.25 367.019531 416.804688 C 366.707031 417.363281 366.472656 417.949219 366.316406 418.570312 C 366.160156 419.1875 366.09375 419.816406 366.109375 420.457031 C 366.125 421.09375 366.226562 421.71875 366.414062 422.332031 L 376.332031 455.742188 L 127.605469 455.742188 Z M 482.828125 373.230469 L 652.210938 373.230469 C 652.671875 373.230469 653.128906 373.1875 653.582031 373.097656 C 654.035156 373.007812 654.476562 372.875 654.902344 372.695312 C 655.328125 372.519531 655.734375 372.304688 656.117188 372.046875 C 656.503906 371.789062 656.859375 371.5 657.183594 371.171875 C 657.511719 370.84375 657.800781 370.488281 658.058594 370.105469 C 658.316406 369.722656 658.53125 369.316406 658.710938 368.890625 C 658.886719 368.460938 659.019531 368.023438 659.109375 367.570312 C 659.199219 367.117188 659.246094 366.660156 659.246094 366.199219 L 659.246094 251.894531 C 659.246094 251.429688 659.199219 250.972656 659.109375 250.519531 C 659.019531 250.066406 658.886719 249.628906 658.710938 249.199219 C 658.53125 248.773438 658.316406 248.367188 658.058594 247.984375 C 657.800781 247.601562 657.511719 247.246094 657.183594 246.917969 C 656.859375 246.59375 656.503906 246.300781 656.117188 246.042969 C 655.734375 245.789062 655.328125 245.570312 654.902344 245.394531 C 654.476562 245.21875 654.035156 245.085938 653.582031 244.992188 C 653.128906 244.902344 652.671875 244.859375 652.210938 244.859375 L 482.828125 244.859375 C 482.367188 244.859375 481.910156 244.902344 481.457031 244.992188 C 481.003906 245.085938 480.5625 245.21875 480.136719 245.394531 C 479.710938 245.570312 479.304688 245.789062 478.921875 246.042969 C 478.535156 246.300781 478.179688 246.59375 477.855469 246.917969 C 477.527344 247.246094 477.234375 247.601562 476.980469 247.984375 C 476.722656 248.367188 476.507812 248.773438 476.328125 249.199219 C 476.152344 249.628906 476.019531 250.066406 475.929688 250.519531 C 475.839844 250.972656 475.792969 251.429688 475.792969 251.894531 L 475.792969 366.199219 C 475.792969 366.660156 475.839844 367.117188 475.929688 367.570312 C 476.019531 368.023438 476.152344 368.460938 476.328125 368.890625 C 476.507812 369.316406 476.722656 369.722656 476.980469 370.105469 C 477.234375 370.488281 477.527344 370.84375 477.855469 371.171875 C 478.179688 371.5 478.535156 371.789062 478.921875 372.046875 C 479.304688 372.304688 479.710938 372.519531 480.136719 372.695312 C 480.5625 372.875 481.003906 373.007812 481.457031 373.097656 C 481.910156 373.1875 482.367188 373.230469 482.828125 373.230469 Z M 489.863281 258.925781 L 645.175781 258.925781 L 645.175781 359.164062 L 489.863281 359.164062 Z M 482.828125 521.441406 L 652.210938 521.441406 C 652.671875 521.441406 653.128906 521.394531 653.582031 521.304688 C 654.035156 521.214844 654.476562 521.082031 654.902344 520.90625 C 655.328125 520.730469 655.734375 520.511719 656.117188 520.253906 C 656.503906 520 656.859375 519.707031 657.183594 519.382812 C 657.511719 519.054688 657.800781 518.699219 658.058594 518.316406 C 658.316406 517.929688 658.53125 517.527344 658.710938 517.097656 C 658.886719 516.671875 659.019531 516.234375 659.109375 515.78125 C 659.199219 515.328125 659.246094 514.867188 659.246094 514.40625 L 659.246094 406.996094 C 659.246094 406.535156 659.199219 406.078125 659.109375 405.625 C 659.019531 405.171875 658.886719 404.730469 658.710938 404.304688 C 658.53125 403.878906 658.316406 403.472656 658.058594 403.085938 C 657.800781 402.703125 657.511719 402.347656 657.183594 402.023438 C 656.859375 401.695312 656.503906 401.402344 656.117188 401.148438 C 655.734375 400.890625 655.328125 400.671875 654.902344 400.496094 C 654.476562 400.320312 654.035156 400.1875 653.582031 400.097656 C 653.128906 400.007812 652.671875 399.960938 652.210938 399.960938 L 482.828125 399.960938 C 482.367188 399.960938 481.910156 400.007812 481.457031 400.097656 C 481.003906 400.1875 480.5625 400.320312 480.136719 400.496094 C 479.710938 400.675781 479.304688 400.890625 478.921875 401.148438 C 478.535156 401.402344 478.179688 401.695312 477.855469 402.023438 C 477.527344 402.347656 477.234375 402.703125 476.980469 403.085938 C 476.722656 403.472656 476.507812 403.878906 476.328125 404.304688 C 476.152344 404.730469 476.019531 405.171875 475.929688 405.625 C 475.839844 406.078125 475.792969 406.535156 475.792969 406.996094 L 475.792969 514.40625 C 475.792969 514.867188 475.839844 515.328125 475.929688 515.78125 C 476.019531 516.234375 476.152344 516.671875 476.328125 517.097656 C 476.507812 517.527344 476.722656 517.929688 476.980469 518.316406 C 477.234375 518.699219 477.527344 519.054688 477.855469 519.382812 C 478.179688 519.707031 478.535156 520 478.921875 520.253906 C 479.304688 520.511719 479.710938 520.730469 480.136719 520.90625 C 480.5625 521.082031 481.003906 521.214844 481.457031 521.304688 C 481.910156 521.394531 482.367188 521.441406 482.828125 521.441406 Z M 489.863281 414.03125 L 645.175781 414.03125 L 645.175781 507.375 L 489.863281 507.375 Z M 482.828125 676.613281 L 652.210938 676.613281 C 652.671875 676.613281 653.128906 676.570312 653.582031 676.480469 C 654.035156 676.390625 654.476562 676.253906 654.902344 676.078125 C 655.328125 675.902344 655.734375 675.6875 656.117188 675.429688 C 656.503906 675.171875 656.859375 674.882812 657.183594 674.554688 C 657.511719 674.226562 657.800781 673.871094 658.058594 673.488281 C 658.316406 673.105469 658.53125 672.699219 658.710938 672.273438 C 658.886719 671.84375 659.019531 671.40625 659.109375 670.953125 C 659.199219 670.5 659.246094 670.042969 659.246094 669.582031 L 659.246094 562.167969 C 659.246094 561.707031 659.199219 561.25 659.109375 560.796875 C 659.019531 560.34375 658.886719 559.902344 658.710938 559.476562 C 658.53125 559.050781 658.316406 558.644531 658.058594 558.261719 C 657.800781 557.878906 657.511719 557.523438 657.183594 557.195312 C 656.859375 556.867188 656.503906 556.578125 656.117188 556.320312 C 655.734375 556.0625 655.328125 555.847656 654.902344 555.671875 C 654.476562 555.492188 654.035156 555.359375 653.582031 555.269531 C 653.128906 555.179688 652.671875 555.136719 652.210938 555.136719 L 482.828125 555.136719 C 482.367188 555.136719 481.910156 555.179688 481.457031 555.269531 C 481.003906 555.359375 480.5625 555.492188 480.136719 555.671875 C 479.710938 555.847656 479.304688 556.0625 478.921875 556.320312 C 478.535156 556.578125 478.179688 556.867188 477.855469 557.195312 C 477.527344 557.523438 477.234375 557.878906 476.980469 558.261719 C 476.722656 558.644531 476.507812 559.050781 476.328125 559.476562 C 476.152344 559.902344 476.019531 560.34375 475.929688 560.796875 C 475.839844 561.25 475.792969 561.707031 475.792969 562.167969 L 475.792969 669.582031 C 475.792969 670.042969 475.839844 670.5 475.929688 670.953125 C 476.019531 671.40625 476.152344 671.84375 476.328125 672.273438 C 476.507812 672.699219 476.722656 673.105469 476.980469 673.488281 C 477.234375 673.871094 477.527344 674.226562 477.855469 674.554688 C 478.179688 674.882812 478.535156 675.171875 478.921875 675.429688 C 479.304688 675.6875 479.710938 675.902344 480.136719 676.078125 C 480.5625 676.253906 481.003906 676.390625 481.457031 676.480469 C 481.910156 676.570312 482.367188 676.613281 482.828125 676.613281 Z M 489.863281 569.203125 L 645.175781 569.203125 L 645.175781 662.546875 L 489.863281 662.546875 Z M 420.292969 520.738281 C 420.292969 521.199219 420.25 521.65625 420.160156 522.109375 C 420.070312 522.5625 419.9375 523.003906 419.757812 523.429688 C 419.582031 523.855469 419.367188 524.261719 419.109375 524.644531 C 418.851562 525.03125 418.5625 525.386719 418.234375 525.710938 C 417.90625 526.039062 417.550781 526.328125 417.167969 526.585938 C 416.785156 526.84375 416.378906 527.058594 415.953125 527.238281 C 415.527344 527.414062 415.085938 527.546875 414.632812 527.636719 C 414.179688 527.726562 413.722656 527.773438 413.261719 527.773438 L 123.101562 527.773438 C 122.640625 527.773438 122.183594 527.726562 121.730469 527.636719 C 121.277344 527.546875 120.835938 527.414062 120.410156 527.238281 C 119.984375 527.058594 119.578125 526.84375 119.195312 526.585938 C 118.808594 526.328125 118.453125 526.039062 118.128906 525.710938 C 117.800781 525.386719 117.511719 525.03125 117.253906 524.644531 C 116.996094 524.261719 116.78125 523.855469 116.601562 523.429688 C 116.425781 523.003906 116.292969 522.5625 116.203125 522.109375 C 116.113281 521.65625 116.066406 521.199219 116.066406 520.738281 C 116.066406 520.277344 116.113281 519.820312 116.203125 519.367188 C 116.292969 518.914062 116.425781 518.472656 116.601562 518.046875 C 116.78125 517.621094 116.996094 517.214844 117.253906 516.828125 C 117.511719 516.445312 117.800781 516.089844 118.128906 515.765625 C 118.453125 515.4375 118.808594 515.144531 119.195312 514.890625 C 119.578125 514.632812 119.984375 514.414062 120.410156 514.238281 C 120.835938 514.0625 121.277344 513.929688 121.730469 513.839844 C 122.183594 513.75 122.640625 513.703125 123.101562 513.703125 L 412.910156 513.703125 C 413.371094 513.703125 413.828125 513.75 414.28125 513.839844 C 414.734375 513.929688 415.175781 514.0625 415.601562 514.238281 C 416.027344 514.414062 416.433594 514.632812 416.816406 514.890625 C 417.199219 515.144531 417.554688 515.4375 417.882812 515.765625 C 418.210938 516.089844 418.5 516.445312 418.757812 516.828125 C 419.015625 517.214844 419.230469 517.621094 419.40625 518.046875 C 419.585938 518.472656 419.71875 518.914062 419.808594 519.367188 C 419.898438 519.820312 419.941406 520.277344 419.941406 520.738281 Z M 420.292969 586.296875 C 420.292969 586.757812 420.25 587.214844 420.160156 587.667969 C 420.070312 588.121094 419.9375 588.5625 419.757812 588.988281 C 419.582031 589.414062 419.367188 589.820312 419.109375 590.203125 C 418.851562 590.589844 418.5625 590.945312 418.234375 591.269531 C 417.90625 591.597656 417.550781 591.886719 417.167969 592.144531 C 416.785156 592.402344 416.378906 592.617188 415.953125 592.792969 C 415.527344 592.972656 415.085938 593.105469 414.632812 593.195312 C 414.179688 593.285156 413.722656 593.332031 413.261719 593.332031 L 242.050781 593.332031 C 241.585938 593.332031 241.128906 593.285156 240.675781 593.195312 C 240.222656 593.105469 239.785156 592.972656 239.359375 592.792969 C 238.929688 592.617188 238.527344 592.402344 238.140625 592.144531 C 237.757812 591.886719 237.402344 591.597656 237.074219 591.269531 C 236.75 590.945312 236.457031 590.589844 236.199219 590.203125 C 235.945312 589.820312 235.726562 589.414062 235.550781 588.988281 C 235.375 588.5625 235.242188 588.121094 235.148438 587.667969 C 235.058594 587.214844 235.015625 586.757812 235.015625 586.296875 C 235.015625 585.835938 235.058594 585.375 235.148438 584.925781 C 235.242188 584.472656 235.375 584.03125 235.550781 583.605469 C 235.726562 583.175781 235.945312 582.773438 236.199219 582.386719 C 236.457031 582.003906 236.75 581.648438 237.074219 581.324219 C 237.402344 580.996094 237.757812 580.703125 238.140625 580.449219 C 238.527344 580.191406 238.929688 579.972656 239.359375 579.796875 C 239.785156 579.621094 240.222656 579.488281 240.675781 579.398438 C 241.128906 579.308594 241.585938 579.261719 242.050781 579.261719 L 412.910156 579.261719 C 413.371094 579.261719 413.828125 579.308594 414.28125 579.398438 C 414.734375 579.488281 415.175781 579.621094 415.601562 579.796875 C 416.027344 579.972656 416.433594 580.191406 416.816406 580.449219 C 417.199219 580.703125 417.554688 580.996094 417.882812 581.324219 C 418.210938 581.648438 418.5 582.003906 418.757812 582.386719 C 419.015625 582.773438 419.230469 583.175781 419.40625 583.605469 C 419.585938 584.03125 419.71875 584.472656 419.808594 584.925781 C 419.898438 585.375 419.941406 585.835938 419.941406 586.296875 Z M 116.417969 586.296875 C 116.417969 585.835938 116.464844 585.375 116.554688 584.925781 C 116.644531 584.472656 116.777344 584.03125 116.953125 583.605469 C 117.132812 583.175781 117.347656 582.773438 117.605469 582.386719 C 117.863281 582.003906 118.152344 581.648438 118.480469 581.324219 C 118.804688 580.996094 119.160156 580.703125 119.546875 580.449219 C 119.929688 580.191406 120.335938 579.972656 120.761719 579.796875 C 121.1875 579.621094 121.628906 579.488281 122.082031 579.398438 C 122.535156 579.308594 122.992188 579.261719 123.453125 579.261719 L 198.578125 579.261719 C 199.039062 579.261719 199.496094 579.308594 199.949219 579.398438 C 200.402344 579.488281 200.84375 579.621094 201.269531 579.796875 C 201.695312 579.972656 202.101562 580.191406 202.488281 580.449219 C 202.871094 580.703125 203.226562 580.996094 203.550781 581.324219 C 203.878906 581.648438 204.171875 582.003906 204.425781 582.386719 C 204.683594 582.773438 204.898438 583.175781 205.078125 583.605469 C 205.253906 584.03125 205.386719 584.472656 205.476562 584.925781 C 205.566406 585.375 205.613281 585.835938 205.613281 586.296875 C 205.613281 586.757812 205.566406 587.214844 205.476562 587.667969 C 205.386719 588.121094 205.253906 588.5625 205.078125 588.988281 C 204.898438 589.414062 204.683594 589.820312 204.425781 590.203125 C 204.171875 590.589844 203.878906 590.945312 203.550781 591.269531 C 203.226562 591.597656 202.871094 591.886719 202.488281 592.144531 C 202.101562 592.402344 201.695312 592.617188 201.269531 592.792969 C 200.84375 592.972656 200.402344 593.105469 199.949219 593.195312 C 199.496094 593.285156 199.039062 593.332031 198.578125 593.332031 L 123.101562 593.332031 C 122.640625 593.332031 122.183594 593.285156 121.730469 593.195312 C 121.277344 593.105469 120.835938 592.972656 120.410156 592.792969 C 119.984375 592.617188 119.578125 592.402344 119.195312 592.144531 C 118.808594 591.886719 118.453125 591.597656 118.128906 591.269531 C 117.800781 590.945312 117.511719 590.589844 117.253906 590.203125 C 116.996094 589.820312 116.78125 589.414062 116.601562 588.988281 C 116.425781 588.5625 116.292969 588.121094 116.203125 587.667969 C 116.113281 587.214844 116.066406 586.757812 116.066406 586.296875 Z M 253.515625 651.855469 C 253.515625 652.316406 253.46875 652.773438 253.378906 653.226562 C 253.289062 653.679688 253.15625 654.121094 252.980469 654.546875 C 252.804688 654.972656 252.585938 655.378906 252.328125 655.761719 C 252.074219 656.144531 251.78125 656.5 251.453125 656.828125 C 251.128906 657.15625 250.773438 657.445312 250.390625 657.703125 C 250.003906 657.960938 249.597656 658.175781 249.171875 658.351562 C 248.746094 658.53125 248.304688 658.664062 247.851562 658.753906 C 247.398438 658.84375 246.941406 658.886719 246.480469 658.886719 L 123.101562 658.886719 C 122.640625 658.886719 122.183594 658.84375 121.730469 658.753906 C 121.277344 658.664062 120.835938 658.53125 120.410156 658.351562 C 119.984375 658.175781 119.578125 657.960938 119.195312 657.703125 C 118.808594 657.445312 118.453125 657.15625 118.128906 656.828125 C 117.800781 656.5 117.511719 656.144531 117.253906 655.761719 C 116.996094 655.378906 116.78125 654.972656 116.601562 654.546875 C 116.425781 654.121094 116.292969 653.679688 116.203125 653.226562 C 116.113281 652.773438 116.066406 652.316406 116.066406 651.855469 C 116.066406 651.390625 116.113281 650.933594 116.203125 650.480469 C 116.292969 650.027344 116.425781 649.589844 116.601562 649.164062 C 116.78125 648.734375 116.996094 648.332031 117.253906 647.945312 C 117.511719 647.5625 117.800781 647.207031 118.128906 646.878906 C 118.453125 646.554688 118.808594 646.261719 119.195312 646.003906 C 119.578125 645.75 119.984375 645.53125 120.410156 645.355469 C 120.835938 645.179688 121.277344 645.046875 121.730469 644.957031 C 122.183594 644.867188 122.640625 644.820312 123.101562 644.820312 L 246.480469 644.820312 C 246.941406 644.820312 247.398438 644.867188 247.851562 644.957031 C 248.304688 645.046875 248.746094 645.179688 249.171875 645.355469 C 249.597656 645.53125 250.003906 645.75 250.390625 646.003906 C 250.773438 646.261719 251.128906 646.554688 251.453125 646.878906 C 251.78125 647.207031 252.074219 647.5625 252.328125 647.945312 C 252.585938 648.332031 252.804688 648.734375 252.980469 649.164062 C 253.15625 649.589844 253.289062 650.027344 253.378906 650.480469 C 253.46875 650.933594 253.515625 651.390625 253.515625 651.855469 Z M 589.957031 298.386719 L 560.203125 277.074219 C 559.230469 276.300781 558.167969 275.679688 557.019531 275.210938 C 555.867188 274.742188 554.675781 274.445312 553.441406 274.316406 C 552.203125 274.191406 550.976562 274.238281 549.753906 274.464844 C 548.53125 274.6875 547.367188 275.082031 546.257812 275.640625 C 545.148438 276.199219 544.136719 276.902344 543.230469 277.75 C 542.320312 278.59375 541.550781 279.554688 540.917969 280.621094 C 540.28125 281.691406 539.8125 282.824219 539.503906 284.03125 C 539.195312 285.234375 539.058594 286.457031 539.101562 287.695312 L 539.101562 330.394531 C 539.074219 331.628906 539.21875 332.84375 539.535156 334.039062 C 539.855469 335.234375 540.332031 336.363281 540.96875 337.421875 C 541.605469 338.480469 542.378906 339.429688 543.285156 340.273438 C 544.191406 341.113281 545.195312 341.8125 546.300781 342.367188 C 547.402344 342.921875 548.5625 343.3125 549.777344 343.539062 C 550.992188 343.769531 552.214844 343.820312 553.445312 343.703125 C 554.675781 343.582031 555.867188 343.292969 557.015625 342.835938 C 558.164062 342.378906 559.226562 341.773438 560.203125 341.015625 L 590.308594 319.914062 C 590.726562 319.613281 591.125 319.289062 591.5 318.941406 C 591.878906 318.59375 592.234375 318.226562 592.570312 317.835938 C 592.902344 317.445312 593.214844 317.039062 593.5 316.613281 C 593.785156 316.1875 594.046875 315.746094 594.277344 315.289062 C 594.511719 314.832031 594.71875 314.359375 594.898438 313.878906 C 595.074219 313.398438 595.222656 312.910156 595.34375 312.410156 C 595.464844 311.910156 595.554688 311.40625 595.617188 310.894531 C 595.675781 310.386719 595.707031 309.875 595.707031 309.363281 C 595.707031 308.847656 595.675781 308.335938 595.617188 307.828125 C 595.554688 307.316406 595.464844 306.8125 595.34375 306.3125 C 595.222656 305.816406 595.074219 305.324219 594.898438 304.84375 C 594.71875 304.363281 594.511719 303.894531 594.277344 303.4375 C 594.046875 302.980469 593.785156 302.539062 593.5 302.113281 C 593.214844 301.683594 592.902344 301.277344 592.570312 300.886719 C 592.234375 300.5 591.878906 300.128906 591.5 299.78125 C 591.125 299.433594 590.726562 299.109375 590.308594 298.8125 Z M 553.167969 328.425781 L 553.167969 289.667969 L 580.460938 309.011719 Z M 589.816406 450.113281 L 559.710938 429.011719 C 558.742188 428.304688 557.695312 427.738281 556.574219 427.3125 C 555.453125 426.886719 554.292969 426.617188 553.097656 426.507812 C 551.902344 426.394531 550.714844 426.445312 549.53125 426.65625 C 548.351562 426.867188 547.21875 427.230469 546.136719 427.746094 C 545.070312 428.292969 544.097656 428.976562 543.222656 429.792969 C 542.34375 430.609375 541.597656 431.527344 540.976562 432.554688 C 540.355469 433.578125 539.882812 434.667969 539.566406 435.824219 C 539.246094 436.976562 539.09375 438.15625 539.101562 439.351562 L 539.101562 482.050781 C 539.058594 483.292969 539.195312 484.515625 539.503906 485.71875 C 539.8125 486.921875 540.28125 488.058594 540.917969 489.125 C 541.550781 490.195312 542.320312 491.152344 543.230469 492 C 544.136719 492.847656 545.148438 493.550781 546.257812 494.109375 C 547.367188 494.667969 548.53125 495.058594 549.753906 495.28125 C 550.976562 495.507812 552.203125 495.554688 553.441406 495.429688 C 554.675781 495.300781 555.867188 495.003906 557.019531 494.535156 C 558.167969 494.066406 559.230469 493.445312 560.203125 492.671875 L 590.308594 471.570312 C 590.726562 471.269531 591.125 470.945312 591.5 470.597656 C 591.878906 470.25 592.234375 469.882812 592.570312 469.492188 C 592.902344 469.101562 593.214844 468.695312 593.5 468.269531 C 593.785156 467.84375 594.046875 467.402344 594.277344 466.945312 C 594.511719 466.488281 594.71875 466.015625 594.898438 465.535156 C 595.074219 465.054688 595.222656 464.566406 595.34375 464.066406 C 595.464844 463.566406 595.554688 463.0625 595.617188 462.550781 C 595.675781 462.042969 595.707031 461.53125 595.707031 461.019531 C 595.707031 460.503906 595.675781 459.992188 595.617188 459.484375 C 595.554688 458.972656 595.464844 458.46875 595.34375 457.96875 C 595.222656 457.472656 595.074219 456.980469 594.898438 456.5 C 594.71875 456.019531 594.511719 455.550781 594.277344 455.09375 C 594.046875 454.636719 593.785156 454.195312 593.5 453.769531 C 593.214844 453.339844 592.902344 452.933594 592.570312 452.542969 C 592.234375 452.15625 591.878906 451.785156 591.5 451.4375 C 591.125 451.089844 590.726562 450.765625 590.308594 450.46875 Z M 553.167969 480.082031 L 553.167969 441.324219 L 580.460938 460.738281 Z M 589.816406 605.21875 L 559.710938 584.117188 C 558.746094 583.402344 557.699219 582.832031 556.574219 582.40625 C 555.449219 581.980469 554.289062 581.714844 553.089844 581.609375 C 551.894531 581.503906 550.703125 581.5625 549.523438 581.785156 C 548.34375 582.007812 547.210938 582.386719 546.136719 582.917969 C 545.070312 583.464844 544.097656 584.148438 543.222656 584.964844 C 542.34375 585.78125 541.597656 586.703125 540.976562 587.726562 C 540.355469 588.75 539.882812 589.839844 539.566406 590.996094 C 539.246094 592.152344 539.09375 593.328125 539.101562 594.527344 L 539.101562 637.222656 C 539.058594 638.464844 539.195312 639.6875 539.503906 640.890625 C 539.8125 642.09375 540.28125 643.230469 540.917969 644.296875 C 541.550781 645.367188 542.320312 646.324219 543.230469 647.171875 C 544.136719 648.019531 545.148438 648.722656 546.257812 649.28125 C 547.367188 649.839844 548.53125 650.230469 549.753906 650.457031 C 550.976562 650.679688 552.203125 650.730469 553.441406 650.601562 C 554.675781 650.476562 555.867188 650.175781 557.019531 649.707031 C 558.167969 649.238281 559.230469 648.617188 560.203125 647.84375 L 590.308594 626.742188 C 590.722656 626.441406 591.117188 626.113281 591.492188 625.765625 C 591.867188 625.414062 592.21875 625.046875 592.550781 624.65625 C 592.882812 624.265625 593.1875 623.855469 593.472656 623.429688 C 593.753906 623.003906 594.011719 622.5625 594.242188 622.105469 C 594.476562 621.648438 594.679688 621.179688 594.855469 620.699219 C 595.03125 620.21875 595.179688 619.730469 595.300781 619.230469 C 595.417969 618.734375 595.507812 618.230469 595.566406 617.722656 C 595.628906 617.214844 595.65625 616.703125 595.65625 616.191406 C 595.65625 615.679688 595.628906 615.167969 595.566406 614.660156 C 595.507812 614.152344 595.417969 613.648438 595.300781 613.152344 C 595.179688 612.652344 595.03125 612.164062 594.855469 611.683594 C 594.679688 611.203125 594.476562 610.734375 594.242188 610.277344 C 594.011719 609.820312 593.753906 609.378906 593.472656 608.953125 C 593.1875 608.527344 592.882812 608.117188 592.550781 607.726562 C 592.21875 607.335938 591.867188 606.964844 591.492188 606.617188 C 591.117188 606.269531 590.722656 605.941406 590.308594 605.640625 Z M 553.167969 635.253906 L 553.167969 596.496094 L 580.601562 616.121094 Z M 210.394531 319.28125 C 209.800781 317.902344 208.90625 316.753906 207.722656 315.832031 C 206.441406 314.828125 204.988281 314.359375 203.363281 314.425781 L 202.304688 314.425781 C 200.695312 314.347656 199.265625 314.816406 198.015625 315.832031 C 196.824219 316.75 195.933594 317.898438 195.34375 319.28125 L 168.050781 383.996094 C 167.722656 384.78125 167.535156 385.605469 167.488281 386.457031 C 167.460938 387.203125 167.582031 387.921875 167.851562 388.617188 C 168.121094 389.316406 168.515625 389.929688 169.035156 390.464844 C 169.574219 391.03125 170.207031 391.457031 170.929688 391.753906 C 171.652344 392.046875 172.40625 392.179688 173.183594 392.152344 C 174.339844 392.140625 175.394531 391.8125 176.351562 391.167969 C 177.328125 390.542969 178.054688 389.699219 178.53125 388.636719 L 185.566406 372.457031 L 220.734375 372.457031 L 227.769531 388.636719 C 228.152344 389.609375 228.761719 390.40625 229.597656 391.027344 C 230.554688 391.683594 231.609375 392.011719 232.765625 392.011719 C 233.535156 392.042969 234.277344 391.910156 234.988281 391.617188 C 235.703125 391.320312 236.320312 390.890625 236.84375 390.324219 C 237.375 389.792969 237.777344 389.179688 238.058594 388.484375 C 238.339844 387.789062 238.472656 387.066406 238.460938 386.316406 C 238.417969 385.453125 238.207031 384.628906 237.828125 383.851562 Z M 189.714844 361.484375 L 202.871094 329.902344 L 215.953125 361.484375 Z M 295.578125 310.980469 C 294.820312 310.972656 294.085938 311.109375 293.382812 311.390625 C 292.675781 311.671875 292.046875 312.074219 291.5 312.597656 C 290.9375 313.140625 290.511719 313.773438 290.21875 314.496094 C 289.925781 315.21875 289.789062 315.96875 289.8125 316.746094 L 289.8125 340.875 C 288.652344 339.761719 287.402344 338.769531 286.054688 337.894531 C 284.707031 337.019531 283.292969 336.285156 281.804688 335.679688 C 280.316406 335.078125 278.78125 334.621094 277.207031 334.3125 C 275.632812 334.003906 274.042969 333.847656 272.4375 333.839844 C 270.152344 333.832031 267.910156 334.121094 265.703125 334.707031 C 263.496094 335.289062 261.402344 336.152344 259.421875 337.289062 C 257.339844 338.492188 255.457031 339.957031 253.773438 341.675781 C 252.089844 343.394531 250.667969 345.308594 249.503906 347.417969 C 248.210938 349.785156 247.238281 352.28125 246.597656 354.90625 C 245.953125 357.527344 245.65625 360.191406 245.707031 362.890625 C 245.640625 365.605469 245.929688 368.28125 246.574219 370.917969 C 247.21875 373.554688 248.195312 376.058594 249.503906 378.4375 C 250.664062 380.554688 252.085938 382.480469 253.769531 384.210938 C 255.453125 385.945312 257.339844 387.417969 259.421875 388.636719 C 261.402344 389.773438 263.496094 390.632812 265.703125 391.21875 C 267.910156 391.804688 270.152344 392.089844 272.4375 392.082031 C 274.042969 392.078125 275.632812 391.921875 277.207031 391.609375 C 278.785156 391.300781 280.316406 390.84375 281.804688 390.242188 C 283.292969 389.640625 284.707031 388.902344 286.054688 388.027344 C 287.402344 387.15625 288.65625 386.164062 289.8125 385.050781 L 289.8125 385.753906 C 289.792969 386.519531 289.933594 387.261719 290.226562 387.96875 C 290.519531 388.679688 290.945312 389.300781 291.5 389.832031 C 292.046875 390.355469 292.675781 390.757812 293.382812 391.039062 C 294.085938 391.320312 294.820312 391.457031 295.578125 391.449219 C 295.953125 391.457031 296.328125 391.421875 296.695312 391.351562 C 297.066406 391.28125 297.421875 391.175781 297.769531 391.035156 C 298.117188 390.894531 298.449219 390.71875 298.761719 390.511719 C 299.074219 390.304688 299.363281 390.066406 299.628906 389.800781 C 299.894531 389.539062 300.132812 389.246094 300.339844 388.933594 C 300.546875 388.621094 300.722656 388.292969 300.863281 387.945312 C 301.003906 387.597656 301.109375 387.238281 301.179688 386.871094 C 301.25 386.5 301.28125 386.128906 301.277344 385.753906 L 301.277344 316.746094 C 301.28125 315.988281 301.144531 315.253906 300.867188 314.550781 C 300.585938 313.84375 300.183594 313.214844 299.660156 312.667969 C 299.128906 312.113281 298.507812 311.6875 297.796875 311.394531 C 297.085938 311.101562 296.347656 310.964844 295.578125 310.980469 Z M 289.8125 374.285156 C 287.769531 376.484375 285.425781 378.292969 282.777344 379.703125 C 279.980469 381.074219 277.027344 381.753906 273.914062 381.742188 C 272.789062 381.800781 271.667969 381.738281 270.554688 381.558594 C 269.441406 381.375 268.363281 381.078125 267.3125 380.667969 C 266.261719 380.253906 265.269531 379.734375 264.332031 379.109375 C 263.390625 378.484375 262.53125 377.769531 261.746094 376.960938 C 261.007812 375.988281 260.355469 374.960938 259.789062 373.882812 C 259.21875 372.800781 258.742188 371.683594 258.351562 370.527344 C 257.964844 369.371094 257.671875 368.191406 257.476562 366.984375 C 257.28125 365.78125 257.179688 364.570312 257.179688 363.347656 C 257.179688 362.128906 257.28125 360.917969 257.476562 359.710938 C 257.671875 358.507812 257.964844 357.328125 258.351562 356.171875 C 258.742188 355.015625 259.21875 353.894531 259.789062 352.816406 C 260.355469 351.738281 261.007812 350.710938 261.746094 349.738281 C 262.523438 348.941406 263.375 348.230469 264.304688 347.613281 C 265.230469 346.992188 266.214844 346.480469 267.25 346.066406 C 268.285156 345.65625 269.355469 345.355469 270.453125 345.167969 C 271.550781 344.980469 272.660156 344.910156 273.773438 344.953125 C 276.898438 344.933594 279.855469 345.636719 282.636719 347.066406 C 285.300781 348.453125 287.644531 350.257812 289.671875 352.480469 Z M 353.117188 366.480469 C 354.144531 367.78125 354.921875 369.214844 355.453125 370.785156 C 355.984375 372.355469 356.238281 373.96875 356.214844 375.625 C 356.222656 376.777344 356.105469 377.914062 355.855469 379.039062 C 355.609375 380.167969 355.238281 381.25 354.746094 382.292969 C 354.25 383.332031 353.648438 384.304688 352.933594 385.210938 C 352.21875 386.117188 351.414062 386.929688 350.515625 387.652344 C 348.226562 389.320312 345.722656 390.554688 343.007812 391.351562 C 340.289062 392.148438 337.515625 392.460938 334.6875 392.292969 C 331.226562 392.34375 327.8125 391.953125 324.453125 391.117188 C 321.089844 390.285156 317.890625 389.035156 314.851562 387.371094 C 314.121094 386.90625 313.554688 386.292969 313.152344 385.527344 C 312.75 384.761719 312.566406 383.945312 312.601562 383.078125 C 312.589844 382.414062 312.707031 381.769531 312.949219 381.148438 C 313.195312 380.527344 313.546875 379.972656 314.007812 379.492188 C 314.382812 379.105469 314.808594 378.785156 315.285156 378.53125 C 315.761719 378.28125 316.261719 378.105469 316.792969 378.011719 C 317.324219 377.917969 317.855469 377.90625 318.386719 377.980469 C 318.921875 378.050781 319.433594 378.203125 319.917969 378.4375 C 322.1875 379.429688 324.535156 380.203125 326.953125 380.757812 C 329.402344 381.351562 331.886719 381.632812 334.40625 381.601562 C 341.441406 381.601562 345.382812 379.421875 345.382812 374.570312 C 345.367188 374.246094 345.308594 373.933594 345.199219 373.628906 C 345.089844 373.324219 344.9375 373.042969 344.742188 372.785156 C 344.546875 372.527344 344.320312 372.304688 344.054688 372.117188 C 343.792969 371.929688 343.507812 371.785156 343.199219 371.683594 C 340.355469 370.464844 337.421875 369.503906 334.40625 368.800781 C 330.84375 368.003906 327.351562 366.972656 323.925781 365.707031 C 321.171875 364.554688 318.828125 362.84375 316.894531 360.570312 C 315.804688 359.304688 314.984375 357.878906 314.4375 356.300781 C 313.890625 354.71875 313.65625 353.097656 313.726562 351.425781 C 313.695312 350.207031 313.796875 349.003906 314.03125 347.808594 C 314.265625 346.613281 314.632812 345.460938 315.125 344.347656 C 315.617188 343.234375 316.226562 342.1875 316.953125 341.210938 C 317.675781 340.234375 318.5 339.347656 319.425781 338.554688 C 321.6875 336.886719 324.164062 335.660156 326.863281 334.875 C 329.558594 334.085938 332.308594 333.789062 335.109375 333.980469 C 340.546875 333.925781 345.824219 334.816406 350.9375 336.65625 C 352.074219 336.976562 352.96875 337.632812 353.609375 338.625 C 353.886719 339.015625 354.105469 339.441406 354.261719 339.894531 C 354.421875 340.347656 354.515625 340.8125 354.542969 341.292969 C 354.570312 341.773438 354.53125 342.246094 354.421875 342.714844 C 354.316406 343.183594 354.148438 343.628906 353.917969 344.050781 C 353.6875 344.472656 353.402344 344.855469 353.066406 345.195312 C 352.726562 345.535156 352.347656 345.824219 351.929688 346.058594 C 351.511719 346.296875 351.066406 346.46875 350.601562 346.578125 C 350.132812 346.691406 349.660156 346.734375 349.179688 346.714844 C 348.640625 346.796875 348.101562 346.796875 347.5625 346.714844 C 343.671875 345.476562 339.6875 344.84375 335.605469 344.8125 C 332.558594 344.667969 329.699219 345.324219 327.023438 346.785156 C 326.597656 347.007812 326.214844 347.28125 325.867188 347.609375 C 325.519531 347.9375 325.21875 348.304688 324.972656 348.714844 C 324.722656 349.125 324.535156 349.558594 324.40625 350.019531 C 324.277344 350.480469 324.210938 350.949219 324.207031 351.425781 C 324.1875 351.839844 324.230469 352.25 324.335938 352.648438 C 324.441406 353.050781 324.605469 353.429688 324.824219 353.78125 C 325.042969 354.132812 325.3125 354.441406 325.625 354.714844 C 325.941406 354.984375 326.289062 355.199219 326.671875 355.363281 C 329.609375 356.664062 332.65625 357.601562 335.816406 358.179688 C 339.328125 359.015625 342.773438 360.070312 346.15625 361.34375 C 348.902344 362.503906 351.246094 364.21875 353.1875 366.480469 Z M 353.117188 366.480469 " fill-opacity="1" fill-rule="nonzero"/></g></svg>